# Max2Obj Version 4.0 Mar 10th, 2001
#
# object objdefault to come ...
#
v  -0.000000 0.112431 0.000385
v  -0.000000 0.337601 1.445585
v  -0.000000 0.371341 -1.424945
v  -0.000000 1.221151 -2.311475
v  -0.000000 2.349645 2.324565
v  -0.000000 3.173581 0.024874
v  -0.000000 3.298640 1.415285
v  -0.000000 3.667070 0.000385
v  -0.000000 5.151839 1.495265
v  -0.000000 6.041823 -0.486724
v  -0.000000 5.928148 0.143036
v  -0.000000 6.624170 -1.087585
v  0.109359 5.259027 1.638196
v  0.109359 5.032794 1.393796
v  0.109359 5.194009 1.356576
v  0.109359 5.097811 1.675416
v  0.155927 5.113402 1.375186
v  0.155927 5.178419 1.656806
v  0.178842 5.003067 1.492326
v  0.178842 5.027902 1.599896
v  0.178842 5.263919 1.432106
v  0.178842 5.288753 1.539676
v  0.228392 6.641041 -1.028755
v  0.228392 6.859120 -0.268233
v  0.254191 5.133493 1.462216
v  0.254191 5.158328 1.569786
v  0.285490 5.688472 -0.895119
v  0.285490 5.910941 0.068500
v  0.395586 6.687120 -0.868039
v  0.395586 6.813030 -0.428950
v  0.441907 5.841918 0.555381
v  0.441914 5.541660 -1.175805
v  0.456784 6.750081 -0.648495
v  0.494483 5.735485 -0.691482
v  0.494483 5.863927 -0.135137
v  0.499151 3.361071 -0.855676
v  0.499151 3.495501 0.869221
v  0.570980 5.799706 -0.413310
v  0.651983 3.768831 1.152955
v  0.651983 3.768831 -1.106175
v  0.696657 3.298831 -1.224685
v  0.696657 3.299711 1.225455
v  0.707297 0.356000 -1.230925
v  0.715781 3.226400 1.275725
v  0.715781 3.226400 -1.228955
v  0.729085 0.307470 1.243825
v  0.744135 3.419051 1.312565
v  0.744135 3.419051 -1.265785
v  0.744135 3.593940 1.312565
v  0.744135 3.593940 -1.265785
v  0.780539 4.775118 -1.516975
v  0.783684 5.581661 -0.810669
v  0.783696 5.767107 0.188596
v  0.788449 5.143809 1.277775
v  0.803582 3.975291 -1.436085
v  0.806453 4.246630 1.354855
v  0.864477 3.389570 -0.491163
v  0.864555 3.468580 0.504708
v  0.906291 5.664277 -0.311392
v  0.998073 3.429881 0.006773
v  1.113610 3.770921 0.693633
v  1.116980 3.751340 0.608822
v  1.129390 3.768831 0.675541
v  1.129390 3.768831 -0.628766
v  1.143040 2.364385 -1.986965
v  1.144430 1.176471 -1.993615
v  1.155340 2.360025 1.997995
v  1.178390 3.304101 0.707682
v  1.178430 3.305090 -0.706912
v  1.179420 1.119531 2.018135
v  1.227840 0.399940 -0.707425
v  1.234120 3.761770 0.183334
v  1.237490 3.742190 0.098523
v  1.239890 3.226400 0.746427
v  1.239890 3.226400 -0.699652
v  1.248380 3.780951 0.697772
v  1.251750 3.761371 0.612961
v  1.259930 0.302751 0.708995
v  1.289000 3.419051 0.767693
v  1.289000 3.419051 -0.720918
v  1.289000 3.593940 0.767693
v  1.289000 3.593940 -0.720918
v  1.304140 3.768831 0.023388
v  1.326200 3.775091 0.179196
v  1.329570 3.755511 0.094385
v  1.343300 3.309031 0.000385
v  1.349530 4.820659 -0.925952
v  1.355780 5.056931 0.686818
v  1.386060 4.017611 -0.846293
v  1.389420 4.186582 0.765058
v  1.415850 3.609110 0.750515
v  1.419220 3.589530 0.665704
v  1.431730 3.226400 0.023388
v  1.436500 0.356801 0.000385
v  1.488440 3.419051 0.023388
v  1.488440 3.593940 0.023388
v  1.488990 3.633030 0.186160
v  1.492360 3.613451 0.101349
v  1.497070 3.367361 0.810415
v  1.500440 3.347781 0.725604
v  1.557770 4.928334 -0.119493
v  1.599300 4.096311 -0.040618
v  1.609040 2.932451 0.077601
v  1.609040 2.932451 -0.086401
v  1.638860 3.424070 0.233821
v  1.642230 3.404490 0.149009
v  1.769750 3.245720 0.077601
v  1.769750 3.245720 -0.086401
v  1.813780 2.688141 0.077601
v  1.813780 2.688141 -0.086401
v  1.890240 3.253731 0.077601
v  1.890240 3.253731 -0.086401
v  1.896550 3.144031 0.077601
v  1.896550 3.144031 -0.086401
v  1.916860 2.451095 -1.144045
v  1.941330 2.580821 1.036245
v  1.944700 2.481390 0.801718
v  1.947920 2.329985 1.144815
v  1.954900 1.311701 -1.144305
v  2.033150 1.076130 1.145385
v  2.083110 2.637531 0.459646
v  2.086490 2.538110 0.225123
v  2.125660 1.932081 1.142405
v  2.134660 3.248170 0.077601
v  2.134660 3.248170 -0.086401
v  2.174290 2.429625 0.000385
v  2.267440 1.988801 0.565813
v  2.270420 1.228020 0.000385
v  2.315020 2.878221 0.077601
v  2.315020 2.878221 -0.086401
v  2.337060 3.158451 0.077601
v  2.337060 3.158451 -0.086401
v  -0.000000 3.593940 -1.465179
v  -0.000000 3.593940 1.511949
v  -0.000000 3.768831 -1.280869
v  -0.000000 3.768831 1.327649
v  0.000000 5.185945 1.689405
v  -0.000000 5.185884 1.689140
v  -0.000000 4.949954 1.504586
v  -0.000000 5.226488 1.349076
v  0.000000 5.105875 1.342587
v  -1.227840 0.399940 -0.707425
v  -1.436500 0.356801 0.000385
v  -0.707297 0.356000 -1.230925
v  -0.729085 0.307470 1.243825
v  -1.259930 0.302751 0.708995
v  -1.954900 1.311701 -1.144305
v  -2.270420 1.228020 0.000385
v  -1.144430 1.176471 -1.993615
v  -1.179420 1.119531 2.018135
v  -0.000000 1.142170 2.358255
v  -2.033150 1.076130 1.145385
v  -1.916860 2.451095 -1.144045
v  -2.174290 2.429625 0.000385
v  -1.143040 2.364385 -1.986965
v  -0.000000 2.395075 -2.299385
v  -1.155340 2.360025 1.997995
v  -1.947920 2.329985 1.144815
v  -1.178430 3.305090 -0.706912
v  -1.343300 3.309031 0.000385
v  -0.696657 3.298831 -1.224685
v  -0.000000 3.299371 -1.414205
v  -0.696657 3.299711 1.225455
v  -1.178390 3.304101 0.707682
v  -0.864477 3.389570 -0.491163
v  -0.998073 3.429881 0.006773
v  -0.499151 3.361071 -0.855676
v  -0.000000 3.354691 -0.989098
v  -0.499151 3.495501 0.869221
v  -0.000000 3.503281 1.002645
v  -0.864555 3.468580 0.504708
v  -1.386060 4.017611 -0.846293
v  -1.599300 4.096311 -0.040618
v  -0.803582 3.975291 -1.436085
v  -0.000000 3.973660 -1.651965
v  -0.806453 4.246630 1.354855
v  -0.000000 4.251411 1.570735
v  -1.389420 4.186582 0.765058
v  -1.349530 4.820659 -0.925952
v  -1.557770 4.928334 -0.119493
v  -0.780539 4.775118 -1.516975
v  -0.000000 4.791714 -1.733595
v  -0.788449 5.143809 1.277775
v  -1.355780 5.056931 0.686818
v  -0.783684 5.581661 -0.810669
v  -0.906291 5.664277 -0.311392
v  -0.441914 5.541660 -1.175805
v  -0.000000 5.544953 -1.309035
v  -0.441907 5.841918 0.555381
v  -0.000000 5.853098 0.690480
v  -0.783696 5.767107 0.188596
v  -1.813780 2.688141 -0.086401
v  -2.315020 2.878221 -0.086401
v  -2.315020 2.878221 0.077601
v  -1.813780 2.688141 0.077601
v  -1.609040 2.932451 0.077601
v  -1.609040 2.932451 -0.086401
v  -1.769750 3.245720 0.077601
v  -1.769750 3.245720 -0.086401
v  -1.890240 3.253731 -0.086401
v  -1.890240 3.253731 0.077601
v  -1.896550 3.144031 -0.086401
v  -1.896550 3.144031 0.077601
v  -2.134660 3.248170 0.077601
v  -2.134660 3.248170 -0.086401
v  -2.337060 3.158451 -0.086401
v  -2.337060 3.158451 0.077601
v  -1.239890 3.226400 0.746427
v  -0.715781 3.226400 1.275725
v  -0.000000 3.226400 1.469419
v  -0.000000 3.226400 -1.422649
v  -0.715781 3.226400 -1.228955
v  -1.239890 3.226400 -0.699652
v  -1.431730 3.226400 0.023388
v  -1.289000 3.419051 -0.720918
v  -1.488440 3.419051 0.023388
v  -0.744135 3.419051 -1.265785
v  -0.744135 3.419051 1.312565
v  -0.000000 3.419051 1.511949
v  -1.289000 3.419051 0.767693
v  -1.289000 3.593940 -0.720918
v  -1.488440 3.593940 0.023388
v  -0.744135 3.593940 -1.265785
v  -0.744135 3.593940 1.312565
v  -1.289000 3.593940 0.767693
v  -1.129390 3.768831 -0.628766
v  -1.304140 3.768831 0.023388
v  -0.651983 3.768831 -1.106175
v  -0.651983 3.768831 1.152955
v  -1.129390 3.768831 0.675541
v  -0.494483 5.735485 -0.691482
v  -0.395586 6.687120 -0.868039
v  -0.456784 6.750081 -0.648495
v  -0.570980 5.799706 -0.413310
v  -0.285490 5.688472 -0.895119
v  -0.228392 6.641041 -1.028755
v  -0.000000 5.671264 -0.969655
v  -0.285490 5.910941 0.068500
v  -0.228392 6.859120 -0.268233
v  -0.000000 6.875980 -0.209406
v  -0.494483 5.863927 -0.135137
v  -0.395586 6.813030 -0.428950
v  -0.109359 5.259027 1.638196
v  -0.000000 5.291504 1.630706
v  -0.155927 5.178419 1.656806
v  -0.000000 5.185945 1.689405
v  -0.109359 5.097811 1.675416
v  -0.000000 5.065333 1.682916
v  -0.178842 5.288753 1.539676
v  -0.000000 5.341867 1.527406
v  -0.254191 5.158328 1.569786
v  -0.178842 5.027902 1.599896
v  -0.000000 4.974788 1.612156
v  -0.178842 5.263919 1.432106
v  -0.000000 5.317032 1.419836
v  -0.254191 5.133493 1.462216
v  -0.178842 5.003067 1.492326
v  -0.155927 5.113402 1.375186
v  -0.109359 5.194009 1.356576
v  -0.109359 5.032794 1.393796
v  -0.000000 5.105875 1.342587
v  -0.000000 3.419051 -1.465179
v  -0.000000 5.000316 1.401296
v  -0.000000 5.105937 1.342852
# 264 vertices

vt  0.393684 0.216149 0.000000
vt  0.345827 0.162984 0.000000
vt  0.495519 0.117904 0.000000
vt  0.448741 0.252921 0.000000
vt  0.520940 0.273046 0.000000
vt  0.238944 0.077108 0.000000
vt  0.204927 0.007383 0.000000
vt  0.364588 0.007383 0.000000
vt  0.283555 0.125906 0.000000
vt  0.332543 0.294320 0.000000
vt  0.277207 0.240229 0.000000
vt  0.401059 0.338022 0.000000
vt  0.486117 0.404972 0.000000
vt  0.162375 0.139414 0.000000
vt  0.080997 0.064739 0.000000
vt  0.226794 0.189425 0.000000
vt  0.291663 0.341662 0.000000
vt  0.236338 0.292564 0.000000
vt  0.350219 0.392637 0.000000
vt  0.409110 0.478153 0.000000
vt  0.115004 0.200723 0.000000
vt  0.023765 0.156067 0.000000
vt  0.182556 0.242105 0.000000
vt  0.222380 0.408377 0.000000
vt  0.171308 0.373350 0.000000
vt  0.258303 0.452549 0.000000
vt  0.277570 0.513556 0.000000
vt  0.075159 0.305212 0.000000
vt  0.009228 0.298926 0.000000
vt  0.126103 0.330873 0.000000
vt  0.140816 0.500240 0.000000
vt  0.053645 0.431789 0.000000
vt  0.687242 0.510234 0.000000
vt  0.610833 0.539831 0.000000
vt  0.616604 0.364771 0.000000
vt  0.743857 0.463908 0.000000
vt  0.789507 0.394206 0.000000
vt  0.478384 0.612756 0.000000
vt  0.397300 0.616002 0.000000
vt  0.461291 0.453235 0.000000
vt  0.547432 0.586229 0.000000
vt  0.746461 0.600264 0.000000
vt  0.675289 0.644039 0.000000
vt  0.825114 0.551444 0.000000
vt  0.922245 0.479458 0.000000
vt  0.515209 0.736859 0.000000
vt  0.397300 0.779624 0.000000
vt  0.599941 0.690705 0.000000
vt  0.791640 0.672662 0.000000
vt  0.718676 0.718541 0.000000
vt  0.875549 0.632620 0.000000
vt  0.984562 0.599053 0.000000
vt  0.573293 0.830217 0.000000
vt  0.480819 0.915651 0.000000
vt  0.645688 0.770628 0.000000
vt  0.858232 0.770083 0.000000
vt  0.801532 0.824650 0.000000
vt  0.920773 0.740190 0.000000
vt  0.988750 0.735076 0.000000
vt  0.687642 0.920569 0.000000
vt  0.657224 0.989454 0.000000
vt  0.735914 0.866825 0.000000
vt  0.949067 0.879729 0.000000
vt  0.853767 0.980971 0.000000
vt  0.828643 0.313399 0.000000
vt  0.769982 0.347125 0.000000
vt  0.759663 0.329178 0.000000
vt  0.818326 0.295453 0.000000
vt  0.853208 0.275399 0.000000
vt  0.863525 0.293345 0.000000
vt  0.891736 0.253247 0.000000
vt  0.902055 0.271195 0.000000
vt  0.915269 0.263598 0.000000
vt  0.904953 0.245650 0.000000
vt  0.927293 0.256684 0.000000
vt  0.916976 0.238738 0.000000
vt  0.945415 0.222387 0.000000
vt  0.955734 0.240334 0.000000
vt  0.979961 0.226405 0.000000
vt  0.969643 0.208459 0.000000
vt  0.739220 0.364809 0.000000
vt  0.728903 0.346863 0.000000
vt  0.037691 0.590619 0.000000
vt  0.026842 0.519220 0.000000
vt  0.221690 0.664148 0.000000
vt  0.150187 0.674294 0.000000
vt  0.082839 0.647380 0.000000
vt  0.168575 0.713809 0.000000
vt  0.182063 0.727560 0.000000
vt  0.135306 0.782406 0.000000
vt  0.119399 0.770221 0.000000
vt  0.233460 0.678774 0.000000
vt  0.040457 0.899110 0.000000
vt  0.058435 0.907233 0.000000
vt  0.076709 0.832767 0.000000
vt  0.093804 0.842643 0.000000
vt  0.193864 0.738970 0.000000
vt  0.148500 0.792558 0.000000
vt  0.243744 0.691086 0.000000
vt  0.073761 0.914776 0.000000
vt  0.107977 0.851567 0.000000
vt  0.211125 0.754887 0.000000
vt  0.168540 0.807895 0.000000
vt  0.259481 0.709530 0.000000
vt  0.096928 0.925394 0.000000
vt  0.128617 0.864058 0.000000
vt  0.233673 0.770374 0.000000
vt  0.342375 0.914553 0.000000
vt  0.281532 0.888744 0.000000
vt  0.241742 0.835970 0.000000
vt  0.627417 0.259231 0.000000
vt  0.629535 0.292175 0.000000
vt  0.557851 0.286657 0.000000
vt  0.552304 0.254058 0.000000
vt  0.626451 0.319287 0.000000
vt  0.560279 0.317573 0.000000
vt  0.623931 0.330769 0.000000
vt  0.557839 0.334465 0.000000
vt  0.554422 0.130802 0.000000
vt  0.629535 0.135975 0.000000
vt  0.723827 0.232903 0.000000
vt  0.722387 0.265882 0.000000
vt  0.651713 0.252685 0.000000
vt  0.649707 0.219678 0.000000
vt  0.716404 0.292505 0.000000
vt  0.650801 0.283682 0.000000
vt  0.712664 0.303650 0.000000
vt  0.646558 0.300213 0.000000
vt  0.646631 0.102185 0.000000
vt  0.720751 0.115410 0.000000
vt  0.646558 0.016007 0.000000
vt  0.720677 0.029233 0.000000
vt  0.898304 0.048457 0.000000
vt  0.882202 0.170204 0.000000
vt  0.852421 0.168242 0.000000
vt  0.861248 0.044138 0.000000
vt  0.935055 0.054873 0.000000
vt  0.911771 0.174254 0.000000
vt  0.971404 0.063280 0.000000
vt  0.940938 0.180588 0.000000
vt  0.786691 0.042315 0.000000
vt  0.792758 0.169383 0.000000
vt  0.763023 0.171959 0.000000
vt  0.749483 0.045033 0.000000
vt  0.823999 0.042046 0.000000
vt  0.822575 0.168068 0.000000
vt  0.259752 0.894684 0.000000
vt  0.296213 0.931145 0.000000
vt  0.309558 0.980951 0.000000
vt  0.110333 0.980951 0.000000
vt  0.123678 0.931145 0.000000
vt  0.160139 0.894684 0.000000
vt  0.209946 0.881339 0.000000
vt  0.553458 0.085387 0.000000
vt  0.535766 0.076864 0.000000
vt  0.518150 0.085777 0.000000
vt  0.564649 0.063876 0.000000
vt  0.535277 0.044279 0.000000
vt  0.506505 0.064205 0.000000
vt  0.578526 0.046917 0.000000
vt  0.554417 0.022326 0.000000
vt  0.491327 0.047974 0.000000
vt  0.516369 0.021770 0.000000
vt  0.598923 0.030995 0.000000
vt  0.586946 0.011539 0.000000
vt  0.469880 0.032472 0.000000
vt  0.481559 0.011539 0.000000
vt  0.898914 0.320232 0.000000
vt  0.897249 0.335384 0.000000
vt  0.883476 0.333747 0.000000
vt  0.841205 0.379889 0.000000
vt  0.891164 0.365638 0.000000
vt  0.875547 0.388813 0.000000
vt  0.833847 0.225102 0.000000
vt  0.847778 0.231288 0.000000
vt  0.828332 0.237828 0.000000
vt  0.767187 0.251141 0.000000
vt  0.804640 0.215139 0.000000
vt  0.776755 0.216973 0.000000
vt  0.053191 0.452329 0.000000
vt  0.010007 0.969260 0.000000
vt  0.278175 0.619672 0.000000
vt  0.290836 0.634011 0.000000
vt  0.028185 0.978400 0.000000
vt  0.301262 0.647434 0.000000
vt  0.045369 0.985519 0.000000
vt  0.312241 0.669752 0.000000
vt  0.071229 0.990424 0.000000
vt  0.407955 0.906483 0.000000
vt  0.568494 0.107817 0.000000
vt  0.536571 0.114155 0.000000
vt  0.536091 0.114227 0.000000
vt  0.535608 0.114166 0.000000
vt  0.503892 0.108718 0.000000
vt  0.595435 0.093398 0.000000
vt  0.476593 0.095513 0.000000
vt  0.613281 0.070644 0.000000
vt  0.457324 0.073667 0.000000
vt  0.622955 0.043011 0.000000
vt  0.445927 0.046181 0.000000
vt  0.626814 0.013136 0.000000
vt  0.626812 0.012614 0.000000
vt  0.440051 0.015013 0.000000
vt  0.440071 0.015555 0.000000
vt  0.393684 0.216149 0.000000
vt  0.345827 0.162984 0.000000
vt  0.495519 0.117904 0.000000
vt  0.448741 0.252921 0.000000
vt  0.520940 0.273046 0.000000
vt  0.238944 0.077108 0.000000
vt  0.204927 0.007383 0.000000
vt  0.364588 0.007383 0.000000
vt  0.283555 0.125906 0.000000
vt  0.332543 0.294320 0.000000
vt  0.277207 0.240229 0.000000
vt  0.401059 0.338022 0.000000
vt  0.486117 0.404972 0.000000
vt  0.162375 0.139414 0.000000
vt  0.080997 0.064739 0.000000
vt  0.226794 0.189425 0.000000
vt  0.291663 0.341662 0.000000
vt  0.236338 0.292564 0.000000
vt  0.350219 0.392637 0.000000
vt  0.409110 0.478153 0.000000
vt  0.115004 0.200723 0.000000
vt  0.023765 0.156067 0.000000
vt  0.182556 0.242105 0.000000
vt  0.222380 0.408377 0.000000
vt  0.171308 0.373350 0.000000
vt  0.258303 0.452549 0.000000
vt  0.277570 0.513556 0.000000
vt  0.075159 0.305212 0.000000
vt  0.009228 0.298926 0.000000
vt  0.126103 0.330873 0.000000
vt  0.140816 0.500240 0.000000
vt  0.053645 0.431789 0.000000
vt  0.687242 0.510234 0.000000
vt  0.610833 0.539831 0.000000
vt  0.616604 0.364771 0.000000
vt  0.743857 0.463908 0.000000
vt  0.789507 0.394206 0.000000
vt  0.478384 0.612756 0.000000
vt  0.397300 0.616002 0.000000
vt  0.461291 0.453235 0.000000
vt  0.547432 0.586229 0.000000
vt  0.746461 0.600264 0.000000
vt  0.675289 0.644039 0.000000
vt  0.825114 0.551444 0.000000
vt  0.922245 0.479458 0.000000
vt  0.515209 0.736859 0.000000
vt  0.397300 0.779624 0.000000
vt  0.599941 0.690705 0.000000
vt  0.791640 0.672662 0.000000
vt  0.718676 0.718541 0.000000
vt  0.875549 0.632620 0.000000
vt  0.984562 0.599053 0.000000
vt  0.573293 0.830217 0.000000
vt  0.480819 0.915651 0.000000
vt  0.645688 0.770628 0.000000
vt  0.858232 0.770083 0.000000
vt  0.801532 0.824650 0.000000
vt  0.920773 0.740190 0.000000
vt  0.988750 0.735076 0.000000
vt  0.687642 0.920569 0.000000
vt  0.657224 0.989454 0.000000
vt  0.735914 0.866825 0.000000
vt  0.949067 0.879729 0.000000
vt  0.853767 0.980971 0.000000
vt  0.828643 0.313399 0.000000
vt  0.769982 0.347125 0.000000
vt  0.759663 0.329178 0.000000
vt  0.818326 0.295453 0.000000
vt  0.853208 0.275399 0.000000
vt  0.863525 0.293345 0.000000
vt  0.891736 0.253247 0.000000
vt  0.902055 0.271195 0.000000
vt  0.915269 0.263598 0.000000
vt  0.904953 0.245650 0.000000
vt  0.927293 0.256684 0.000000
vt  0.916976 0.238738 0.000000
vt  0.945415 0.222387 0.000000
vt  0.955734 0.240334 0.000000
vt  0.979961 0.226405 0.000000
vt  0.969643 0.208459 0.000000
vt  0.739220 0.364809 0.000000
vt  0.728903 0.346863 0.000000
vt  0.037691 0.590619 0.000000
vt  0.026842 0.519220 0.000000
vt  0.053191 0.452329 0.000000
vt  0.278175 0.619672 0.000000
vt  0.221690 0.664148 0.000000
vt  0.150187 0.674294 0.000000
vt  0.082839 0.647380 0.000000
vt  0.168575 0.713809 0.000000
vt  0.182063 0.727560 0.000000
vt  0.135306 0.782406 0.000000
vt  0.119399 0.770221 0.000000
vt  0.233460 0.678774 0.000000
vt  0.040457 0.899110 0.000000
vt  0.058435 0.907233 0.000000
vt  0.028185 0.978400 0.000000
vt  0.010007 0.969260 0.000000
vt  0.076709 0.832767 0.000000
vt  0.093804 0.842643 0.000000
vt  0.193864 0.738970 0.000000
vt  0.148500 0.792558 0.000000
vt  0.243744 0.691086 0.000000
vt  0.073761 0.914776 0.000000
vt  0.045369 0.985519 0.000000
vt  0.107977 0.851567 0.000000
vt  0.211125 0.754887 0.000000
vt  0.168540 0.807895 0.000000
vt  0.259481 0.709530 0.000000
vt  0.096928 0.925394 0.000000
vt  0.071229 0.990424 0.000000
vt  0.128617 0.864058 0.000000
vt  0.233673 0.770374 0.000000
vt  0.312241 0.669752 0.000000
vt  0.407955 0.906483 0.000000
vt  0.342375 0.914553 0.000000
vt  0.281532 0.888744 0.000000
vt  0.241742 0.835970 0.000000
vt  0.898304 0.048457 0.000000
vt  0.882202 0.170204 0.000000
vt  0.852421 0.168242 0.000000
vt  0.861248 0.044138 0.000000
vt  0.935055 0.054873 0.000000
vt  0.911771 0.174254 0.000000
vt  0.971404 0.063280 0.000000
vt  0.940938 0.180588 0.000000
vt  0.786691 0.042315 0.000000
vt  0.792758 0.169383 0.000000
vt  0.763023 0.171959 0.000000
vt  0.749483 0.045033 0.000000
vt  0.823999 0.042046 0.000000
vt  0.822575 0.168068 0.000000
vt  0.259752 0.894684 0.000000
vt  0.296213 0.931145 0.000000
vt  0.309558 0.980951 0.000000
vt  0.110333 0.980951 0.000000
vt  0.123678 0.931145 0.000000
vt  0.160139 0.894684 0.000000
vt  0.209946 0.881339 0.000000
vt  0.553458 0.085387 0.000000
vt  0.568494 0.107817 0.000000
vt  0.536571 0.114155 0.000000
vt  0.535766 0.076864 0.000000
vt  0.536091 0.114227 0.000000
vt  0.535608 0.114166 0.000000
vt  0.518150 0.085777 0.000000
vt  0.503892 0.108718 0.000000
vt  0.564649 0.063876 0.000000
vt  0.595435 0.093398 0.000000
vt  0.535277 0.044279 0.000000
vt  0.506505 0.064205 0.000000
vt  0.476593 0.095513 0.000000
vt  0.578526 0.046917 0.000000
vt  0.613281 0.070644 0.000000
vt  0.554417 0.022326 0.000000
vt  0.491327 0.047974 0.000000
vt  0.516369 0.021770 0.000000
vt  0.586946 0.011539 0.000000
vt  0.598923 0.030995 0.000000
vt  0.469880 0.032472 0.000000
vt  0.481559 0.011539 0.000000
vt  0.626812 0.012614 0.000000
vt  0.626814 0.013136 0.000000
vt  0.898914 0.320232 0.000000
vt  0.897249 0.335384 0.000000
vt  0.883476 0.333747 0.000000
vt  0.841205 0.379889 0.000000
vt  0.891164 0.365638 0.000000
vt  0.875547 0.388813 0.000000
vt  0.833847 0.225102 0.000000
vt  0.847778 0.231288 0.000000
vt  0.828332 0.237828 0.000000
vt  0.767187 0.251141 0.000000
vt  0.804640 0.215139 0.000000
vt  0.776755 0.216973 0.000000
vt  0.290836 0.634011 0.000000
vt  0.301262 0.647434 0.000000
vt  0.457324 0.073667 0.000000
vt  0.622955 0.043011 0.000000
vt  0.445927 0.046181 0.000000
vt  0.440051 0.015013 0.000000
vt  0.440071 0.015555 0.000000
# 386 texture vertices

vn  -0.000000 -0.999665 -0.025896
vn  -0.000000 -0.885090 0.465420
vn  0.000000 -0.871072 -0.491156
vn  -0.000000 -0.358734 -0.933440
vn  -0.000000 0.362129 0.932128
vn  0.000000 -0.997074 0.076440
vn  0.000000 0.842027 0.539435
vn  -0.000000 1.000000 0.000019
vn  0.000000 0.431491 0.902117
vn  0.000000 0.978868 -0.204495
vn  0.000000 0.348526 0.937299
vn  0.000000 -0.122821 -0.992429
vn  0.332664 0.622807 0.708128
vn  0.332798 -0.623156 -0.707759
vn  0.332680 0.249363 -0.909473
vn  0.332797 -0.249803 0.909310
vn  0.518096 -0.192275 -0.833431
vn  0.518066 0.192532 0.833390
vn  0.598371 -0.782962 -0.170069
vn  0.598364 -0.629162 0.496102
vn  0.598379 0.629171 -0.496072
vn  0.598367 0.782960 0.170091
vn  0.497135 -0.091039 -0.862884
vn  0.495361 0.317489 0.808590
vn  0.931370 -0.081897 -0.354743
vn  0.931362 0.081901 0.354762
vn  0.498026 -0.091611 -0.862309
vn  0.494958 0.316977 0.809038
vn  0.860840 -0.004369 -0.508857
vn  0.859049 0.231552 0.456528
vn  0.306803 0.882302 0.356953
vn  0.355159 0.681073 -0.640313
vn  0.993179 0.113742 -0.025657
vn  0.861714 -0.005219 -0.507368
vn  0.858625 0.230749 0.457732
vn  0.269614 -0.873500 -0.405347
vn  0.282168 -0.791052 0.542788
vn  0.993326 0.112836 -0.023912
vn  0.210644 0.906926 0.364848
vn  0.210645 0.906927 -0.364845
vn  0.280532 0.840348 -0.463807
vn  0.281731 0.839431 0.464740
vn  0.265761 -0.874811 -0.405064
vn  0.336357 -0.737012 0.586240
vn  0.334893 -0.737413 -0.586573
vn  0.217001 -0.889730 0.401610
vn  0.499472 -0.115781 0.858558
vn  0.498697 -0.114989 -0.859115
vn  0.463930 0.372927 0.803551
vn  0.463933 0.372927 -0.803549
vn  0.496199 0.216538 -0.840772
vn  0.559466 0.719275 -0.411876
vn  0.537278 0.833842 0.126646
vn  0.478248 0.434464 0.763230
vn  0.473532 -0.410153 -0.779449
vn  0.477813 -0.260176 0.839049
vn  0.475436 -0.855808 -0.203849
vn  0.483545 -0.806044 0.341286
vn  0.617827 0.772910 -0.144572
vn  0.553594 -0.830012 0.067930
vn  -0.073099 0.996706 -0.035134
vn  -0.073099 0.996706 -0.035134
vn  0.364846 0.906927 0.210643
vn  0.364845 0.906927 -0.210645
vn  0.484730 0.345326 -0.803609
vn  0.487305 -0.385347 -0.783608
vn  0.483034 0.369165 0.793974
vn  0.480014 0.836045 0.265735
vn  0.465051 0.846338 -0.259692
vn  0.469687 -0.370527 0.801314
vn  0.456563 -0.848219 -0.268468
vn  -0.134489 0.990359 -0.033196
vn  -0.134489 0.990359 -0.033196
vn  0.572577 -0.748977 0.333451
vn  0.572319 -0.749638 -0.332404
vn  0.338256 0.940449 0.033749
vn  0.338256 0.940449 0.033749
vn  0.404381 -0.892956 0.197751
vn  0.859832 -0.131817 0.493268
vn  0.860173 -0.130741 -0.492959
vn  0.803551 0.372928 0.463930
vn  0.803550 0.372927 -0.463932
vn  0.421292 0.906925 0.000001
vn  0.327094 0.943636 0.050610
vn  0.327095 0.943635 0.050610
vn  0.536831 0.843679 0.004201
vn  0.825932 0.277186 -0.490922
vn  0.821658 0.402374 0.403699
vn  0.822005 -0.368703 -0.434011
vn  0.823094 -0.280863 0.493591
vn  0.806394 0.565121 0.174263
vn  0.806394 0.565121 0.174263
vn  0.655509 -0.755187 0.000717
vn  0.498895 -0.863034 -0.079227
vn  0.990281 -0.139082 0.000457
vn  0.927862 0.372925 0.000000
vn  0.722539 0.680394 0.122479
vn  0.722539 0.680394 0.122479
vn  0.850329 0.460667 0.254412
vn  0.872371 0.416753 0.255513
vn  0.936896 0.346195 -0.048735
vn  0.947072 -0.319671 0.029413
vn  -0.794036 -0.089107 0.601304
vn  -0.794036 -0.089107 -0.601304
vn  0.819372 0.536308 0.202493
vn  0.839292 0.502937 0.206503
vn  -0.434794 0.661342 0.611213
vn  -0.434794 0.661342 -0.611213
vn  -0.202674 -0.776184 0.597045
vn  -0.202674 -0.776184 -0.597045
vn  0.540736 0.612218 0.576882
vn  0.540736 0.612218 -0.576882
vn  0.174635 0.284503 0.942635
vn  0.174635 0.284503 -0.942635
vn  0.810641 0.381699 -0.444035
vn  0.877594 0.405533 0.255680
vn  0.851281 0.458872 0.254474
vn  0.822138 0.362828 0.438684
vn  0.831290 -0.313960 -0.458678
vn  0.824614 -0.375742 0.422883
vn  0.864415 0.433221 0.255161
vn  0.851280 0.458873 0.254477
vn  0.918183 0.302711 0.255549
vn  0.001932 0.779293 0.626656
vn  0.001932 0.779293 -0.626656
vn  0.921189 0.389113 -0.001459
vn  0.918181 0.302714 0.255553
vn  0.948458 -0.311442 -0.058578
vn  0.637540 -0.478064 0.604150
vn  0.637540 -0.478064 -0.604150
vn  0.688923 0.410650 0.597287
vn  0.688923 0.410650 -0.597287
vn  0.000000 0.372934 -0.927858
vn  0.000000 0.372926 0.927861
vn  0.000000 0.906932 -0.421276
vn  0.000000 0.906926 0.421290
vn  -0.717334 0.379851 0.584076
vn  0.000000 0.391691 0.920097
vn  -0.000000 -0.995555 -0.094180
vn  -0.000000 0.391637 -0.920120
vn  -0.717302 0.085383 -0.691511
vn  -0.456563 -0.848219 -0.268468
vn  -0.498895 -0.863034 -0.079227
vn  -0.265761 -0.874811 -0.405064
vn  -0.217001 -0.889730 0.401610
vn  -0.404381 -0.892956 0.197751
vn  -0.831290 -0.313960 -0.458678
vn  -0.948458 -0.311442 -0.058578
vn  -0.487305 -0.385347 -0.783608
vn  -0.469687 -0.370527 0.801314
vn  0.000000 -0.366096 0.930577
vn  -0.824614 -0.375742 0.422883
vn  -0.810641 0.381699 -0.444035
vn  -0.921189 0.389113 -0.001459
vn  -0.484730 0.345326 -0.803609
vn  0.000000 0.364064 -0.931374
vn  -0.483034 0.369165 0.793974
vn  -0.822138 0.362828 0.438685
vn  -0.465051 0.846338 -0.259692
vn  -0.536831 0.843679 0.004201
vn  -0.280532 0.840348 -0.463807
vn  -0.000000 0.845738 -0.533598
vn  -0.281731 0.839431 0.464740
vn  -0.480014 0.836045 0.265735
vn  -0.475436 -0.855808 -0.203849
vn  -0.553594 -0.830012 0.067930
vn  -0.269614 -0.873500 -0.405347
vn  -0.000000 -0.876722 -0.480997
vn  -0.282168 -0.791052 0.542788
vn  0.000000 -0.788227 0.615385
vn  -0.483545 -0.806044 0.341286
vn  -0.822005 -0.368703 -0.434011
vn  -0.947072 -0.319671 0.029413
vn  -0.473532 -0.410153 -0.779449
vn  0.000000 -0.420836 -0.907137
vn  -0.477813 -0.260176 0.839049
vn  -0.000000 -0.262443 0.964948
vn  -0.823094 -0.280863 0.493591
vn  -0.825932 0.277186 -0.490922
vn  -0.936896 0.346195 -0.048735
vn  -0.496199 0.216538 -0.840772
vn  0.000000 0.201523 -0.979484
vn  -0.478248 0.434464 0.763230
vn  -0.821658 0.402374 0.403699
vn  -0.559466 0.719275 -0.411876
vn  -0.617827 0.772910 -0.144572
vn  -0.355159 0.681073 -0.640313
vn  -0.000000 0.674237 -0.738515
vn  -0.306803 0.882302 0.356953
vn  0.000000 0.889818 0.456316
vn  -0.537278 0.833842 0.126646
vn  0.202674 -0.776184 -0.597045
vn  -0.637540 -0.478064 -0.604150
vn  -0.637540 -0.478064 0.604150
vn  0.202674 -0.776184 0.597045
vn  0.794036 -0.089107 0.601304
vn  0.794036 -0.089107 -0.601304
vn  0.434794 0.661342 0.611213
vn  0.434794 0.661342 -0.611213
vn  -0.540736 0.612218 -0.576882
vn  -0.540736 0.612218 0.576882
vn  -0.174635 0.284503 -0.942635
vn  -0.174635 0.284503 0.942635
vn  -0.001932 0.779293 0.626656
vn  -0.001932 0.779293 -0.626656
vn  -0.688923 0.410650 -0.597287
vn  -0.688923 0.410650 0.597287
vn  -0.572577 -0.748977 0.333451
vn  -0.336357 -0.737012 0.586240
vn  0.000000 -0.731008 0.682369
vn  0.000000 -0.731008 -0.682369
vn  -0.334893 -0.737413 -0.586573
vn  -0.572319 -0.749638 -0.332404
vn  -0.655509 -0.755187 0.000717
vn  -0.860173 -0.130741 -0.492959
vn  -0.990281 -0.139082 0.000457
vn  -0.498697 -0.114989 -0.859115
vn  -0.499472 -0.115781 0.858558
vn  -0.000000 -0.107301 0.994227
vn  -0.859832 -0.131817 0.493268
vn  -0.803550 0.372927 -0.463932
vn  -0.927862 0.372925 0.000000
vn  -0.463933 0.372927 -0.803549
vn  -0.463930 0.372927 0.803551
vn  -0.803551 0.372928 0.463930
vn  -0.364845 0.906927 -0.210645
vn  -0.421292 0.906925 0.000001
vn  -0.210645 0.906927 -0.364845
vn  -0.210644 0.906926 0.364848
vn  -0.364846 0.906927 0.210643
vn  -0.861714 -0.005219 -0.507368
vn  -0.860840 -0.004369 -0.508857
vn  -0.993179 0.113742 -0.025657
vn  -0.993326 0.112836 -0.023912
vn  -0.498026 -0.091611 -0.862309
vn  -0.497135 -0.091039 -0.862884
vn  0.000000 -0.123179 -0.992384
vn  -0.494958 0.316977 0.809038
vn  -0.495361 0.317489 0.808590
vn  0.000000 0.348837 0.937184
vn  -0.858625 0.230749 0.457732
vn  -0.859049 0.231552 0.456528
vn  -0.332664 0.622807 0.708128
vn  -0.000000 0.755348 0.655324
vn  -0.518066 0.192529 0.833390
vn  0.717357 0.379806 0.584077
vn  -0.332803 -0.249797 0.909310
vn  0.000000 -0.391636 0.920120
vn  -0.598367 0.782960 0.170091
vn  0.000000 0.995557 0.094163
vn  -0.931363 0.081901 0.354762
vn  -0.598364 -0.629162 0.496102
vn  -0.000000 -0.853514 0.521069
vn  -0.598379 0.629171 -0.496072
vn  0.000000 0.853514 -0.521070
vn  -0.931370 -0.081897 -0.354743
vn  -0.598371 -0.782962 -0.170069
vn  -0.518096 -0.192284 -0.833429
vn  -0.332680 0.249363 -0.909473
vn  -0.332807 -0.623147 -0.707763
vn  0.717338 0.085317 -0.691482
vn  -0.000000 -0.107297 -0.994227
vn  0.000000 -0.755364 -0.655306
vn  0.000000 -0.051279 -0.998684
# 264 vertex normals

g objdefault
s 1
f 71/1/71 119/10/119 128/11/128 94/2/94
f 43/4/43 66/12/66 119/10/119 71/1/71
f 3/5/3 4/13/4 66/12/66 43/4/43
f 46/6/46 70/14/70 151/15/151 2/7/2
f 78/9/78 120/16/120 70/14/70 46/6/46
f 94/2/94 128/11/128 120/16/120 78/9/78
f 119/10/119 115/17/115 126/18/126 128/11/128
f 66/12/66 65/19/65 115/17/115 119/10/119
f 4/13/4 156/20/156 65/19/65 66/12/66
f 70/14/70 67/21/67 5/22/5 151/15/151
f 120/16/120 118/23/118 67/21/67 70/14/70
f 128/11/128 126/18/126 118/23/118 120/16/120
f 115/17/115 69/24/69 86/25/86 126/18/126
f 65/19/65 41/26/41 69/24/69 115/17/115
f 156/20/156 162/27/162 41/26/41 65/19/65
f 67/21/67 42/28/42 7/29/7 5/22/5
f 118/23/118 68/30/68 42/28/42 67/21/67
f 126/18/126 86/25/86 68/30/68 118/23/118
f 57/33/57 89/42/89 102/43/102 60/34/60
f 36/36/36 55/44/55 89/42/89 57/33/57
f 168/37/168 175/45/175 55/44/55 36/36/36
f 37/38/37 56/46/56 177/47/177 170/39/170
f 58/41/58 90/48/90 56/46/56 37/38/37
f 60/34/60 102/43/102 90/48/90 58/41/58
f 89/42/89 87/49/87 101/50/101 102/43/102
f 55/44/55 51/51/51 87/49/87 89/42/89
f 175/45/175 182/52/182 51/51/51 55/44/55
f 56/46/56 54/53/54 9/54/9 177/47/177
f 90/48/90 88/55/88 54/53/54 56/46/56
f 102/43/102 101/50/101 88/55/88 90/48/90
f 87/49/87 52/56/52 59/57/59 101/50/101
f 51/51/51 32/58/32 52/56/52 87/49/87
f 182/52/182 188/59/188 32/58/32 51/51/51
f 54/53/54 31/60/31 190/61/190 9/54/9
f 88/55/88 53/62/53 31/60/31 54/53/54
f 101/50/101 59/57/59 53/62/53 88/55/88
f 110/65/110 130/66/130 129/67/129 109/68/109
f 103/69/103 104/70/104 110/65/110 109/68/109
f 107/71/107 108/72/108 104/70/104 103/69/103
f 112/73/112 108/72/108 107/71/107 111/74/111
f 114/75/114 112/73/112 111/74/111 113/76/113
f 124/77/124 125/78/125 114/75/114 113/76/113
f 132/79/132 125/78/125 124/77/124 131/80/131
f 130/66/130 132/81/132 131/82/131 129/67/129
f 211/182/211 93/87/93 44/84/44 210/180/210
f 75/86/75 93/87/93 211/182/211 45/85/45
f 75/88/75 80/89/80 95/90/95 93/91/93
f 45/85/45 48/92/48 80/89/80 75/88/75
f 219/184/219 210/181/210 44/93/44 47/94/47
f 74/95/74 79/96/79 47/94/47 44/93/44
f 93/91/93 95/90/95 79/96/79 74/95/74
f 80/89/80 82/97/82 96/98/96 95/90/95
f 48/92/48 50/99/50 82/97/82 80/89/80
f 219/184/219 47/94/47 49/100/49 134/186/134
f 79/96/79 81/101/81 49/100/49 47/94/47
f 95/90/95 96/98/96 81/101/81 79/96/79
f 82/97/82 64/102/64 83/103/83 96/98/96
f 50/99/50 40/104/40 64/102/64 82/97/82
f 134/186/134 49/100/49 39/105/39 136/188/136
f 81/101/81 63/106/63 39/105/39 49/100/49
f 96/98/96 83/103/83 63/106/63 81/101/81
f 136/189/136 83/110/83 40/104/40 135/187/135
f 63/109/63 83/110/83 136/189/136 39/108/39
f 106/111/106 98/112/98 92/113/92 100/114/100
f 85/115/85 77/116/77 92/113/92 98/112/98
f 73/117/73 62/118/62 77/116/77 85/115/85
f 117/119/117 122/120/122 106/111/106 100/114/100
f 105/121/105 97/122/97 91/123/91 99/124/99
f 84/125/84 76/126/76 91/123/91 97/122/97
f 72/127/72 61/128/61 76/126/76 84/125/84
f 116/129/116 121/130/121 105/121/105 99/124/99
f 123/131/123 127/132/127 121/130/121 116/129/116
f 34/133/34 29/134/29 33/135/33 38/136/38
f 27/137/27 23/138/23 29/134/29 34/133/34
f 237/139/237 12/140/12 23/138/23 27/137/27
f 28/141/28 24/142/24 240/143/240 11/144/11
f 35/145/35 30/146/30 24/142/24 28/141/28
f 38/136/38 33/135/33 30/146/30 35/145/35
s 0
f 12/149/12 240/150/240 29/147/29 23/148/23
f 24/151/24 30/152/30 29/147/29 240/150/240
s 1
f 18/155/18 13/154/13 138/191/138 137/192/137
f 16/156/16 18/155/18 137/192/137 138/193/138
f 13/154/13 22/157/22 250/195/250 244/190/244
f 26/158/26 22/157/22 13/154/13 18/155/18
f 26/158/26 18/155/18 16/156/16 20/159/20
f 253/196/253 20/159/20 16/156/16 248/194/248
f 22/157/22 21/160/21 255/197/255 250/195/250
f 25/161/25 21/160/21 22/157/22 26/158/26
f 19/162/19 25/163/25 26/158/26 20/159/20
f 17/165/17 15/164/15 21/160/21 25/161/25
f 14/166/14 17/167/17 25/163/25 19/162/19
f 17/165/17 141/202/141 264/201/264 15/164/15
f 45/85/45 211/182/211 262/183/262 48/92/48
f 262/183/262 133/185/133 50/99/50 48/92/48
f 133/185/133 135/187/135 40/104/40 50/99/50
f 253/196/253 139/198/139 19/162/19 20/159/20
f 15/164/15 140/199/140 255/197/255 21/160/21
f 139/198/139 263/200/263 14/166/14 19/162/19
f 14/166/14 264/204/264 141/203/141 17/167/17
f 142/205/142 143/206/143 148/215/148 147/214/147
f 144/208/144 142/205/142 147/214/147 149/216/149
f 3/209/3 144/208/144 149/216/149 4/217/4
f 145/210/145 2/211/2 151/219/151 150/218/150
f 146/213/146 145/210/145 150/218/150 152/220/152
f 143/206/143 146/213/146 152/220/152 148/215/148
f 147/214/147 148/215/148 154/222/154 153/221/153
f 149/216/149 147/214/147 153/221/153 155/223/155
f 4/217/4 149/216/149 155/223/155 156/224/156
f 150/218/150 151/219/151 5/226/5 157/225/157
f 152/220/152 150/218/150 157/225/157 158/227/158
f 148/215/148 152/220/152 158/227/158 154/222/154
f 153/221/153 154/222/154 160/229/160 159/228/159
f 155/223/155 153/221/153 159/228/159 161/230/161
f 156/224/156 155/223/155 161/230/161 162/231/162
f 157/225/157 5/226/5 7/233/7 163/232/163
f 158/227/158 157/225/157 163/232/163 164/234/164
f 154/222/154 158/227/158 164/234/164 160/229/160
f 165/237/165 166/238/166 173/247/173 172/246/172
f 167/240/167 165/237/165 172/246/172 174/248/174
f 168/241/168 167/240/167 174/248/174 175/249/175
f 169/242/169 170/243/170 177/251/177 176/250/176
f 171/245/171 169/242/169 176/250/176 178/252/178
f 166/238/166 171/245/171 178/252/178 173/247/173
f 172/246/172 173/247/173 180/254/180 179/253/179
f 174/248/174 172/246/172 179/253/179 181/255/181
f 175/249/175 174/248/174 181/255/181 182/256/182
f 176/250/176 177/251/177 9/258/9 183/257/183
f 178/252/178 176/250/176 183/257/183 184/259/184
f 173/247/173 178/252/178 184/259/184 180/254/180
f 179/253/179 180/254/180 186/261/186 185/260/185
f 181/255/181 179/253/179 185/260/185 187/262/187
f 182/256/182 181/255/181 187/262/187 188/263/188
f 183/257/183 9/258/9 190/265/190 189/264/189
f 184/259/184 183/257/183 189/264/189 191/266/191
f 180/254/180 184/259/184 191/266/191 186/261/186
f 192/269/192 195/272/195 194/271/194 193/270/193
f 196/273/196 195/272/195 192/269/192 197/274/197
f 198/275/198 196/273/196 197/274/197 199/276/199
f 200/277/200 201/278/201 198/275/198 199/276/199
f 202/279/202 203/280/203 201/278/201 200/277/200
f 204/281/204 203/280/203 202/279/202 205/282/205
f 206/283/206 207/284/207 204/281/204 205/282/205
f 193/270/193 194/271/194 207/286/207 206/285/206
f 211/290/211 214/293/214 213/292/213 212/291/212
f 209/288/209 214/293/214 211/290/211 210/289/210
f 213/294/213 214/297/214 216/296/216 215/295/215
f 212/291/212 213/294/213 215/295/215 217/298/217
f 219/301/219 218/300/218 209/299/209 210/302/210
f 208/303/208 209/299/209 218/300/218 220/304/220
f 214/297/214 208/303/208 220/304/220 216/296/216
f 215/295/215 216/296/216 222/306/222 221/305/221
f 217/298/217 215/295/215 221/305/221 223/307/223
f 219/301/219 134/309/134 224/308/224 218/300/218
f 220/304/220 218/300/218 224/308/224 225/310/225
f 216/296/216 220/304/220 225/310/225 222/306/222
f 221/305/221 222/306/222 227/312/227 226/311/226
f 223/307/223 221/305/221 226/311/226 228/313/228
f 134/309/134 136/315/136 229/314/229 224/308/224
f 225/310/225 224/308/224 229/314/229 230/316/230
f 222/306/222 225/310/225 230/316/230 227/312/227
f 136/319/136 227/322/227 230/321/230 229/320/229
f 228/313/228 227/322/227 136/319/136 135/318/135
f 231/323/231 234/326/234 233/325/233 232/324/232
f 235/327/235 231/323/231 232/324/232 236/328/236
f 237/329/237 235/327/235 236/328/236 12/330/12
f 238/331/238 11/334/11 240/333/240 239/332/239
f 241/335/241 238/331/238 239/332/239 242/336/242
f 234/326/234 241/335/241 242/336/242 233/325/233
s 0
f 242/342/242 239/341/239 232/337/232 233/343/233
f 240/340/240 12/339/12 232/337/232 239/341/239
s 1
f 245/347/245 246/348/246 138/346/138 243/344/243
f 247/350/247 138/349/138 246/348/246 245/347/245
f 243/344/243 244/345/244 250/353/250 249/352/249
f 251/354/251 245/347/245 243/344/243 249/352/249
f 251/354/251 252/355/252 247/350/247 245/347/245
f 253/356/253 248/351/248 247/350/247 252/355/252
f 249/352/249 250/353/250 255/358/255 254/357/254
f 256/359/256 251/354/251 249/352/249 254/357/254
f 257/360/257 252/355/252 251/354/251 256/361/256
f 258/362/258 256/359/256 254/357/254 259/363/259
f 260/364/260 257/360/257 256/361/256 258/365/258
f 258/362/258 259/363/259 264/367/264 261/366/261
f 212/291/212 217/298/217 262/380/262 211/290/211
f 262/380/262 217/298/217 223/307/223 133/381/133
f 133/381/133 223/307/223 228/313/228 135/318/135
f 253/356/253 252/355/252 257/360/257 139/382/139
f 259/363/259 254/357/254 255/358/255 140/383/140
f 139/382/139 257/360/257 260/364/260 263/384/263
f 260/364/260 258/365/258 261/385/261 264/386/264
f 71/1/71 94/2/94 1/3/1
f 43/4/43 71/1/71 1/3/1
f 3/5/3 43/4/43 1/3/1
f 46/6/46 2/7/2 1/8/1
f 78/9/78 46/6/46 1/8/1
f 94/2/94 78/9/78 1/8/1
f 69/24/69 8/31/8 86/25/86
f 41/26/41 8/31/8 69/24/69
f 162/27/162 8/31/8 41/26/41
f 42/28/42 8/32/8 7/29/7
f 68/30/68 8/32/8 42/28/42
f 86/25/86 8/32/8 68/30/68
f 57/33/57 60/34/60 6/35/6
f 36/36/36 57/33/57 6/35/6
f 168/37/168 36/36/36 6/35/6
f 37/38/37 170/39/170 6/40/6
f 58/41/58 37/38/37 6/40/6
f 60/34/60 58/41/58 6/40/6
f 52/56/52 10/63/10 59/57/59
f 32/58/32 10/63/10 52/56/52
f 188/59/188 10/63/10 32/58/32
f 31/60/31 10/64/10 190/61/190
f 53/62/53 10/64/10 31/60/31
f 59/57/59 10/64/10 53/62/53
f 74/83/74 44/84/44 93/87/93
f 64/107/64 40/104/40 83/110/83
s 0
f 29/147/29 30/152/30 33/153/33
s 1
f 13/154/13 244/190/244 138/191/138
f 16/156/16 138/193/138 248/194/248
f 108/168/108 112/169/112 114/170/114
f 108/168/108 114/170/114 104/70/104
f 104/70/104 114/170/114 110/65/110
f 114/170/114 130/171/130 110/65/110
f 125/172/125 132/173/132 130/171/130
f 114/170/114 125/172/125 130/171/130
f 111/174/111 107/175/107 113/176/113
f 113/176/113 107/175/107 103/69/103
f 113/176/113 103/69/103 109/68/109
f 129/177/129 113/176/113 109/68/109
f 124/178/124 113/176/113 129/177/129
f 131/179/131 124/178/124 129/177/129
f 140/199/140 15/164/15 264/201/264
f 264/204/264 14/166/14 263/200/263
f 142/205/142 1/207/1 143/206/143
f 144/208/144 1/207/1 142/205/142
f 3/209/3 1/207/1 144/208/144
f 145/210/145 1/212/1 2/211/2
f 146/213/146 1/212/1 145/210/145
f 143/206/143 1/212/1 146/213/146
f 159/228/159 160/229/160 8/235/8
f 161/230/161 159/228/159 8/235/8
f 162/231/162 161/230/161 8/235/8
f 163/232/163 7/233/7 8/236/8
f 164/234/164 163/232/163 8/236/8
f 160/229/160 164/234/164 8/236/8
f 165/237/165 6/239/6 166/238/166
f 167/240/167 6/239/6 165/237/165
f 168/241/168 6/239/6 167/240/167
f 169/242/169 6/244/6 170/243/170
f 171/245/171 6/244/6 169/242/169
f 166/238/166 6/244/6 171/245/171
f 185/260/185 186/261/186 10/267/10
f 187/262/187 185/260/185 10/267/10
f 188/263/188 187/262/187 10/267/10
f 189/264/189 190/265/190 10/268/10
f 191/266/191 189/264/189 10/268/10
f 186/261/186 191/266/191 10/268/10
f 208/287/208 214/293/214 209/288/209
f 226/317/226 227/322/227 228/313/228
s 0
f 232/337/232 12/339/12 236/338/236
s 1
f 243/344/243 138/346/138 244/345/244
f 247/350/247 248/351/248 138/349/138
f 199/368/199 202/370/202 200/369/200
f 199/368/199 197/274/197 202/370/202
f 197/274/197 192/269/192 202/370/202
f 202/370/202 192/269/192 193/371/193
f 205/372/205 193/371/193 206/373/206
f 202/370/202 193/371/193 205/372/205
f 201/374/201 203/376/203 198/375/198
f 203/376/203 196/273/196 198/375/198
f 203/376/203 195/272/195 196/273/196
f 194/377/194 195/272/195 203/376/203
f 204/378/204 194/377/194 203/376/203
f 207/379/207 194/377/194 204/378/204
f 140/383/140 264/367/264 259/363/259
f 264/386/264 263/384/263 260/364/260
# 275 faces

g
