# 3ds Max Wavefront OBJ Expoter v0.97b - (c)2007 guruware
# ì¬‚µ‚½ƒtƒ@ƒCƒ‹ : 03.03.2015 14:39:21

mtllib TG_sr25_x.mtl

#
# object TG_sr25_sw6
#

v  0.5779 0.5550 14.9827
v  0.5779 -0.4221 14.2564
v  0.5779 1.5320 14.2564
v  0.2496 1.2722 15.0049
v  0.2496 1.2722 4.2180
v  0.0000 2.6581 4.2180
v  0.0000 2.4336 15.0049
v  0.0000 1.6618 16.9365
v  0.2496 1.3243 16.9365
v  0.2496 1.2722 16.9365
v  0.0000 -1.9701 14.7919
v  0.2500 0.8272 14.7919
v  0.0000 -1.5919 17.3856
v  0.2500 0.6937 17.8365
v  0.0000 0.3198 19.9585
v  0.0000 -2.3400 7.2083
v  0.2500 0.8272 5.6427
v  0.0000 -3.9500 5.3335
v  0.2500 -3.2205 4.6069
v  0.0000 -5.3294 0.1502
v  0.2500 -3.9778 0.6707
v  0.2500 -4.0228 3.4849
v  0.0000 -4.8426 3.8744
v  0.0000 -3.2205 4.6069
v  0.0000 0.8272 5.6427
v  0.0000 -4.0228 3.4849
v  0.0000 -3.9778 0.6707
v  0.0000 -4.1302 0.7037
v  0.0755 -4.1302 0.7037
v  0.1289 -1.0647 -2.5800
v  0.0000 -1.0647 -2.5800
v  0.3861 0.7506 14.9519
v  0.3861 0.7506 17.9260
v  0.0000 0.6332 18.0194
v  0.0000 0.6332 15.0453
v  0.3861 1.5864 17.2609
v  0.0000 1.7038 17.1676
v  0.5779 1.5319 4.1723
v  0.0000 1.7819 4.1723
v  0.0000 1.7820 14.2564
v  0.0000 0.5550 15.2327
v  0.0000 -0.6721 14.2564
v  0.0000 -0.6721 4.1723
v  0.5779 -0.4221 4.1723
v  0.5381 1.4540 4.4097
v  0.5381 1.1688 5.0244
v  0.8476 0.9966 4.8523
v  0.8476 1.2020 4.4097
v  0.5381 0.5540 5.3097
v  0.5381 -0.0607 5.0244
v  0.8476 0.1115 4.8523
v  0.8476 0.5540 5.0577
v  0.8476 -0.0940 4.4097
v  1.1500 1.9126 3.4255
v  1.1500 1.9126 0.3714
v  1.1500 2.6126 0.7787
v  1.1500 2.6126 4.4255
v  0.0000 -0.8582 4.4255
v  1.1500 -0.6924 4.4255
v  0.0000 2.7784 4.4255
v  0.0000 -0.8582 3.4255
v  1.1500 -0.6924 3.4255
v  0.0000 2.7784 0.6823
v  0.0000 1.9126 3.4255
v  0.0000 1.9126 0.3714
v  1.1500 2.6126 -0.0359
v  1.1500 3.3126 0.3714
v  0.0000 2.6126 -0.0359
v  0.9333 3.3126 -5.7330
v  0.0000 3.3126 -5.7330
v  0.0000 3.3126 0.3714
v  0.9333 2.6126 -6.2608
v  0.5633 2.6126 -6.2608
v  0.7791 4.6612 -6.9552
v  0.9333 3.2929 -6.7886
v  0.7791 4.3112 -7.8358
v  0.5633 3.2929 -6.7886
v  0.3663 5.3294 -8.8829
v  0.0000 3.2929 -6.7886
v  0.0000 5.3294 -8.8829
v  0.3663 5.3294 -7.6497
v  0.0000 5.3294 -7.6497
v  0.7206 1.9624 -6.7736
v  1.0906 1.9624 -6.7736
v  1.0906 2.4455 -7.4598
v  0.7206 2.4455 -7.4598
v  0.7206 0.8216 -6.7736
v  1.0906 0.8216 -6.7736
v  1.0906 0.3340 -7.4598
v  0.7206 0.3340 -7.4598
v  0.7206 0.8216 -3.0168
v  1.0906 0.8216 -3.0168
v  1.0906 0.3340 -3.0168
v  0.7206 0.3340 -3.0168
v  1.2231 -1.5587 -2.4498
v  1.2231 -1.5587 -3.6704
v  1.2231 1.8648 -3.6704
v  1.2231 1.8648 -2.4498
v  0.0000 -2.3087 -2.4498
v  0.0000 -2.3087 -3.6704
v  0.5834 -2.3087 -3.6704
v  0.5834 -2.3087 -2.4498
v  0.0000 2.6148 -3.6704
v  0.5834 2.6148 -3.6704
v  0.5834 2.6148 -2.4498
v  0.0000 2.6148 -2.4498
v  0.5862 2.3189 -1.1663
v  0.5862 2.3189 -5.2042
v  0.7616 4.0885 -5.2042
v  0.7616 4.0885 -1.1663
v  0.7616 4.0885 -7.2903
v  0.0000 2.3184 -1.1663
v  0.0000 2.3184 -5.2042
v  0.5070 2.3184 -5.2042
v  0.5070 2.3184 -1.1663
v  0.0000 2.3184 -9.3180
v  0.5071 2.3184 -9.3180
v  0.0000 3.3085 -9.2380
v  0.5071 3.3085 -9.2380
v  0.0000 4.5885 -7.3180
v  0.0000 4.5885 -5.2042
v  0.5071 4.5885 -5.2042
v  0.5071 4.5885 -7.3180
v  0.0000 4.5885 -1.1663
v  0.5071 4.5885 -1.1663
v  0.0000 4.2685 -8.5980
v  0.5071 4.2685 -8.5980
v  0.7616 2.3189 -8.8180
v  0.7616 3.1797 -8.7492
v  0.7616 3.8469 -8.3125
v  0.6372 3.0970 -9.4011
v  0.7972 3.7578 -10.4998
v  0.6372 4.0170 -9.4011
v  0.0000 2.8041 -9.4011
v  0.0000 2.7514 -10.3339
v  0.7972 3.1108 -10.2944
v  0.0000 4.7219 -10.9627
v  0.0000 4.2670 -9.4011
v  0.7972 4.4167 -11.1107
v  0.5048 3.1781 -9.4011
v  0.0000 3.0452 -9.4011
v  0.5048 3.9342 -9.4011
v  0.0000 4.0670 -9.4011
v  0.5048 3.1781 -8.3221
v  0.0000 3.0452 -8.3221
v  0.5048 3.9342 -8.3221
v  0.0000 4.0670 -8.3221
v  0.9234 2.8189 0.3291
v  0.9234 2.8189 -0.6709
v  0.9234 4.0889 -0.6709
v  0.9234 4.0889 0.3291
v  0.0000 2.3189 0.3291
v  0.0000 2.3189 -0.6709
v  0.4234 2.3189 -0.6709
v  0.4234 2.3189 0.3291
v  0.0000 4.5889 0.3291
v  0.0000 4.5889 -0.6709
v  0.6734 3.9853 -0.6709
v  0.0000 4.3389 -0.6709
v  0.6734 2.9224 -0.6709
v  0.6734 3.9853 -1.6709
v  0.0000 4.3389 -1.6709
v  0.6734 2.9224 -1.6709
v  0.0000 2.5689 -0.6709
v  0.0000 2.5689 -1.6709
v  0.6757 0.6489 -19.0803
v  0.6757 0.6489 -19.9585
v  0.6757 1.5489 -19.9585
v  0.6757 1.5489 -19.0803
v  0.0000 1.7739 -19.9585
v  0.0000 0.4239 -19.9585
v  0.0000 0.4239 -19.0803
v  0.0000 1.7739 -19.0803
v  0.0000 0.4989 -11.8970
v  0.0000 0.4989 -19.1758
v  0.6000 1.0989 -19.1758
v  0.6000 1.0989 -11.8970
v  0.0000 1.6989 -19.1758
v  0.0000 1.6989 -11.8970
v  0.5600 -2.6581 -18.7157
v  0.5600 -2.6581 -19.4553
v  0.5600 0.6966 -19.9236
v  0.5600 0.6966 -19.1840
v  0.0000 -2.9081 -19.4553
v  0.0000 0.6966 -19.9236
v  0.0000 -2.9081 -18.7157
v  0.2467 -1.1348 -14.2483
v  0.2467 0.8671 -13.0440
v  0.2467 0.8671 -12.4555
v  0.2467 -1.7847 -14.0391
v  -0.0000 -1.7847 -17.4421
v  0.2386 -1.7847 -17.4421
v  0.0000 -1.7847 -14.0391
v  0.0000 0.8671 -12.4555
v  -0.0000 0.8671 -13.0440
v  0.0000 -1.1348 -14.2483
v  0.2548 -1.1348 -17.6093
v  0.0000 -1.1348 -17.6093
v  0.2957 -2.6161 -18.8681
v  0.3118 -1.8492 -18.8681
v  0.0000 -2.6161 -18.8681
v  0.0000 -1.8492 -18.8681
v  0.6588 4.3112 -11.2634
v  0.0000 4.5171 -11.1680
v  0.6656 3.6677 -10.6777
v  0.0000 2.8798 -10.5095
v  0.6714 3.1108 -10.5081
v  0.6358 4.0594 -10.4028
v  0.0000 4.2370 -10.4028
v  0.0000 2.8971 -10.4028
v  0.6369 3.1164 -10.4028
v  -0.5779 0.5550 14.9827
v  -0.5779 1.5320 14.2564
v  -0.5779 -0.4221 14.2564
v  -0.2496 1.2722 15.0049
v  -0.2496 1.2722 4.2180
v  -0.2496 1.2722 16.9365
v  -0.2496 1.3243 16.9365
v  -0.2500 0.8272 14.7919
v  -0.2500 0.6937 17.8365
v  -0.2500 0.8272 5.6427
v  -0.2500 -3.2205 4.6069
v  -0.2500 -4.0228 3.4849
v  -0.2500 -3.9778 0.6707
v  -0.1289 -1.0647 -2.5800
v  -0.0755 -4.1302 0.7037
v  -0.3861 0.7506 17.9260
v  -0.3861 0.7506 14.9519
v  -0.3861 1.5864 17.2609
v  -0.5779 1.5319 4.1723
v  -0.5779 -0.4221 4.1723
v  -0.5381 1.4540 4.4097
v  -0.8476 1.2020 4.4097
v  -0.8476 0.9966 4.8523
v  -0.5381 1.1688 5.0244
v  -0.5381 0.5540 5.3097
v  -0.8476 0.5540 5.0577
v  -0.8476 0.1115 4.8523
v  -0.5381 -0.0607 5.0244
v  -0.8476 -0.0940 4.4097
v  -1.1500 2.6126 4.4255
v  -1.1500 1.9126 3.4255
v  -1.1500 -0.6924 4.4255
v  -1.1500 -0.6924 3.4255
v  -1.1500 1.9126 0.3714
v  -1.1500 2.6126 0.7787
v  -1.1500 3.3126 0.3714
v  -1.1500 2.6126 -0.0359
v  -0.9333 3.3126 -5.7330
v  -0.9333 2.6126 -6.2608
v  -0.5633 2.6126 -6.2608
v  -0.7791 4.6612 -6.9552
v  -0.7791 4.3112 -7.8358
v  -0.9333 3.2929 -6.7886
v  -0.5633 3.2929 -6.7886
v  -0.3663 5.3294 -8.8829
v  -0.3663 5.3294 -7.6497
v  -1.0906 1.9624 -6.7736
v  -0.7206 1.9624 -6.7736
v  -0.7206 2.4455 -7.4598
v  -1.0906 2.4455 -7.4598
v  -1.0906 0.8216 -6.7736
v  -0.7206 0.8216 -6.7736
v  -0.7206 0.3340 -7.4598
v  -1.0906 0.3340 -7.4598
v  -1.0906 0.8216 -3.0168
v  -0.7206 0.8216 -3.0168
v  -0.7206 0.3340 -3.0168
v  -1.0906 0.3340 -3.0168
v  -1.2231 -1.5587 -2.4498
v  -1.2231 1.8648 -2.4498
v  -1.2231 1.8648 -3.6704
v  -1.2231 -1.5587 -3.6704
v  -0.5834 -2.3087 -2.4498
v  -0.5834 -2.3087 -3.6704
v  -0.5834 2.6148 -3.6704
v  -0.5834 2.6148 -2.4498
v  -0.5862 2.3189 -1.1663
v  -0.7616 4.0885 -1.1663
v  -0.7616 4.0885 -5.2042
v  -0.5862 2.3189 -5.2042
v  -0.7616 4.0885 -7.2903
v  -0.5070 2.3184 -1.1663
v  -0.5070 2.3184 -5.2042
v  -0.5071 2.3184 -9.3180
v  -0.5071 3.3085 -9.2380
v  -0.5071 4.5885 -7.3180
v  -0.5071 4.5885 -5.2042
v  -0.5071 4.5885 -1.1663
v  -0.5071 4.2685 -8.5980
v  -0.7616 2.3189 -8.8180
v  -0.7616 3.1797 -8.7492
v  -0.7616 3.8469 -8.3125
v  -0.6372 3.0970 -9.4011
v  -0.6372 4.0170 -9.4011
v  -0.7972 3.7578 -10.4998
v  -0.7972 3.1108 -10.2944
v  -0.7972 4.4167 -11.1107
v  -0.5048 3.1781 -9.4011
v  -0.5048 3.9342 -9.4011
v  -0.5048 3.1781 -8.3221
v  -0.5048 3.9342 -8.3221
v  -0.9234 2.8189 0.3291
v  -0.9234 4.0889 0.3291
v  -0.9234 4.0889 -0.6709
v  -0.9234 2.8189 -0.6709
v  -0.4234 2.3189 0.3291
v  -0.4234 2.3189 -0.6709
v  -0.6734 3.9853 -0.6709
v  -0.6734 2.9224 -0.6709
v  -0.6734 3.9853 -1.6709
v  -0.6734 2.9224 -1.6709
v  -0.6757 0.6489 -19.0803
v  -0.6757 1.5489 -19.0803
v  -0.6757 1.5489 -19.9585
v  -0.6757 0.6489 -19.9585
v  -0.6000 1.0989 -11.8970
v  -0.6000 1.0989 -19.1758
v  -0.5600 -2.6581 -18.7157
v  -0.5600 0.6966 -19.1840
v  -0.5600 0.6966 -19.9236
v  -0.5600 -2.6581 -19.4553
v  0.0000 0.6966 -19.1840
v  -0.2467 -1.1348 -14.2483
v  -0.2467 -1.7847 -14.0391
v  -0.2467 0.8671 -12.4555
v  -0.2467 0.8671 -13.0440
v  -0.2386 -1.7847 -17.4421
v  -0.2548 -1.1348 -17.6093
v  -0.3118 -1.8492 -18.8681
v  -0.2957 -2.6161 -18.8681
v  -0.6588 4.3112 -11.2634
v  -0.6656 3.6677 -10.6777
v  -0.6714 3.1108 -10.5081
v  -0.6358 4.0594 -10.4028
v  -0.6369 3.1164 -10.4028
v  0.3737 2.2835 -3.3336
v  0.2444 2.2066 -3.3336
v  0.2444 2.2066 -9.2894
v  0.3737 2.2835 -9.2894
v  -0.0000 2.3665 -3.3336
v  0.2657 2.3665 -3.3336
v  0.2657 2.3665 -9.2894
v  0.0000 2.3665 -9.2894
v  0.2444 2.0860 -10.6797
v  0.0000 2.0860 -10.7886
v  0.0000 2.2066 -9.2894
v  0.2444 2.0860 -10.5342
v  0.2444 2.0148 -10.5342
v  0.3567 1.1459 16.3488
v  0.3567 1.1459 18.4065
v  0.0000 0.6975 18.4065
v  0.0000 0.6975 16.3488
v  0.0000 1.1459 17.6489
v  1.1037 1.2170 4.3660
v  1.1037 1.2170 -2.4825
v  0.7621 1.8778 -2.4825
v  0.7621 1.8778 4.3660
v  0.7621 0.5561 4.3660
v  0.7621 0.5561 -2.4825
v  0.6626 1.8257 -2.4825
v  0.6626 1.8257 4.3660
v  0.6626 0.6082 4.3660
v  0.6626 0.6082 -2.4825
v  0.7306 1.3899 -6.7443
v  0.9086 1.1174 -6.5391
v  0.9086 1.1174 -6.7443
v  0.3764 1.8450 -4.0298
v  0.2444 2.0138 -3.3336
v  0.9086 1.1174 -3.3336
v  0.9093 1.1174 -3.8844
v  0.7465 0.9020 -6.5391
v  0.7464 0.9020 -3.8844
v  0.5828 0.7636 -3.3336
v  0.5829 0.7635 -6.7443
v  -0.3737 2.2835 -3.3336
v  -0.3737 2.2835 -9.2894
v  -0.2444 2.2066 -9.2894
v  -0.2444 2.2066 -3.3336
v  -0.2657 2.3665 -9.2894
v  -0.2657 2.3665 -3.3336
v  -0.2444 2.0860 -10.6797
v  -0.2444 2.0860 -10.5342
v  -0.3567 1.1459 18.4065
v  -0.3567 1.1459 16.3488
v  -0.7621 1.8778 4.3660
v  -0.7621 1.8778 -2.4825
v  -1.1037 1.2170 -2.4825
v  -1.1037 1.2170 4.3660
v  -0.7621 0.5561 -2.4825
v  -0.7621 0.5561 4.3660
v  -0.6626 1.8257 4.3660
v  -0.6626 1.8257 -2.4825
v  -0.6626 0.6082 -2.4825
v  -0.6626 0.6082 4.3660
v  -0.7306 1.3899 -6.7443
v  -0.3765 1.8451 -6.3960
v  -0.2444 2.0139 -6.9777
v  -0.9093 1.1174 -3.8844
v  -0.9086 1.1174 -3.3336
v  -0.2444 2.0138 -3.3336
v  -0.3764 1.8450 -4.0298
v  -0.7465 0.9020 -6.5391
v  -0.5829 0.7635 -6.7443
v  -0.5828 0.7636 -3.3336
v  -0.7464 0.9020 -3.8844
v  -0.0000 -0.1018 4.3660
v  0.0000 -0.1018 -2.4825
v  0.6609 0.2398 -2.4825
v  0.6609 0.2398 4.3660
v  -0.6609 0.2398 4.3660
v  -0.6609 0.2398 -2.4825
v  0.6087 0.3393 -2.4825
v  0.6087 0.3393 4.3660
v  -0.6087 0.3393 4.3660
v  -0.6087 0.3393 -2.4825
v  0.6408 1.4174 3.8261
v  0.6408 1.4174 -2.5661
v  0.2443 1.9975 -2.5661
v  0.2443 1.9975 3.8261
v  0.2444 2.2192 -2.5661
v  0.2444 2.2192 3.8261
v  0.3737 2.2953 -2.5661
v  0.3737 2.2953 3.8261
v  0.2657 2.3636 -2.5661
v  -0.0000 2.3636 -2.5661
v  0.0000 2.3636 3.8261
v  0.2657 2.3636 3.8261
v  0.2672 0.2160 3.8261
v  0.2672 0.2160 -2.5661
v  0.6408 0.9325 -2.5661
v  0.6408 0.9325 3.8261
v  -0.2443 1.9975 3.8261
v  -0.2443 1.9975 -2.5661
v  -0.6408 1.4174 -2.5661
v  -0.6408 1.4174 3.8261
v  -0.2444 2.2192 -2.5661
v  -0.2444 2.2192 3.8261
v  -0.3737 2.2953 -2.5661
v  -0.3737 2.2953 3.8261
v  -0.2657 2.3636 -2.5661
v  -0.2657 2.3636 3.8261
v  -0.6408 0.9325 3.8261
v  -0.6408 0.9325 -2.5661
v  -0.2672 0.2160 -2.5661
v  -0.2672 0.3803 3.8261
v  -0.2672 0.2160 3.8261
v  -0.7306 1.3899 -6.9777
v  -0.5829 0.7635 -6.9777
v  0.5829 0.7635 -6.9777
v  0.7306 1.3899 -6.9777
v  0.2444 2.0139 -6.9777
v  0.7812 3.5551 1.8569
v  0.7812 3.5551 0.1807
v  0.0000 4.3301 0.1807
v  0.0000 4.3301 1.8569
v  0.0000 2.7801 1.8569
v  0.0000 2.7801 0.1807
v  0.0000 4.2215 -11.4965
v  0.0000 4.2215 -10.2579
v  0.6664 3.5551 -10.2579
v  0.6664 3.5551 -11.4965
v  0.0000 2.8887 -10.2579
v  -0.0000 2.8887 -11.4965
v  0.5920 3.5551 -11.0147
v  0.0000 4.1470 -11.0147
v  0.0000 2.9631 -11.0147
v  0.0000 4.2319 0.8861
v  0.6830 3.5551 0.8861
v  0.0000 2.8783 0.8861
v  -0.0000 3.5551 -11.2701
v  0.0000 3.5551 1.2381
v  -0.7812 3.5551 0.1807
v  -0.7812 3.5551 1.8569
v  -0.6664 3.5551 -11.4965
v  -0.6664 3.5551 -10.2579
v  -0.5920 3.5551 -11.0147
v  -0.6830 3.5551 0.8861
v  0.5381 -0.3460 4.4097
v  0.0000 0.8585 17.8181
v  0.0000 1.5943 16.3488
v  0.0000 1.5943 18.4065
v  0.0000 1.7038 14.1935
v  0.3861 1.5864 14.2869
v  -0.3861 1.5864 14.2869
v  -0.5381 -0.3460 4.4097
v  0.0000 -4.8655 0.3949
v  0.0000 -1.8090 -2.8959
v  0.3765 1.8451 -6.3960
v  -0.9086 1.1174 -6.7443
v  -0.9086 1.1174 -6.5391
v  -0.2444 2.0148 -10.5342
v  0.9096 1.1274 -3.8844
v  0.9096 1.1274 -6.5391
v  0.4856 1.7301 -6.5390
v  0.4855 1.7301 -3.8845
v  0.4004 1.8451 -6.3960
v  0.4003 1.8450 -4.0298
v  0.7710 0.9020 -3.8844
v  0.7710 0.9020 -6.5391
v  -0.4855 1.7301 -3.8845
v  -0.4856 1.7302 -6.5390
v  -0.9096 1.1274 -6.5391
v  -0.9096 1.1274 -3.8844
v  -0.4003 1.8450 -4.0298
v  -0.4004 1.8451 -6.3960
v  -0.7710 0.9020 -3.8844
v  -0.7710 0.9020 -6.5391
v  0.0000 -2.2434 -5.6351
v  0.4884 -2.2434 -5.6351
v  0.4884 -1.9994 -3.5615
v  0.0000 -1.9994 -3.5615
v  0.0000 2.0639 -10.3152
v  0.2120 2.0639 -10.3152
v  0.7550 1.4050 -10.3152
v  0.0000 1.4050 -10.3152
v  0.0000 1.4050 -11.8652
v  0.7706 1.4050 -11.8652
v  0.5117 0.3950 -10.3152
v  0.0000 0.3950 -10.3152
v  0.0000 -1.0337 -10.1269
v  0.4662 -1.0337 -10.1269
v  0.4884 -1.0337 -6.7351
v  0.0000 -1.0337 -6.7351
v  0.0000 -2.7137 -6.5020
v  0.4884 -2.7137 -6.5020
v  0.5384 -1.9494 -3.5615
v  0.5384 0.3950 -3.5615
v  0.5384 0.3950 -7.4170
v  0.0000 -1.4108 -10.9319
v  0.2102 -1.4108 -10.9319
v  0.2102 -1.5945 -10.5267
v  0.0000 -1.5945 -10.5267
v  0.9720 0.3950 -7.4170
v  0.9720 0.3950 -3.5615
v  0.7817 1.4050 -7.4170
v  0.2120 2.0639 -7.4170
v  0.9720 2.1007 -6.8383
v  0.9720 2.1007 -7.4170
v  0.0000 0.7222 -3.5615
v  0.9720 0.7590 -3.5615
v  0.9720 0.7590 -6.8383
v  0.0000 0.7590 -6.8383
v  0.0000 2.0639 -6.8383
v  0.4362 -0.9905 -9.7487
v  0.4362 -0.9905 -8.7050
v  0.4578 -2.2536 -8.7073
v  0.4578 -1.7653 -9.9536
v  0.0000 -1.6689 -10.1965
v  0.0000 -0.9905 -10.0599
v  0.4580 -2.5165 -9.3941
v  0.4580 -3.9149 -11.4789
v  0.0000 -3.7990 -11.7702
v  0.4580 -4.4710 -10.4101
v  0.4580 -4.9258 -10.4172
v  0.4580 -4.5803 -11.7441
v  0.0000 -4.5122 -12.0662
v  0.0000 -4.6166 -10.1304
v  0.0000 -5.0246 -10.0711
v  0.0000 -2.5832 -9.0892
v  0.0000 -0.9905 -8.7050
v  0.0000 -2.3257 -8.7073
v  0.0000 -2.2501 -6.9631
v  0.3911 -2.2501 -6.9650
v  0.3911 -2.2501 -6.5482
v  0.0000 -2.2501 -6.5482
v  0.3911 -1.4639 -6.7861
v  0.0000 -1.4639 -6.7861
v  0.3911 -0.9707 -6.5482
v  0.3911 -0.9707 -7.2039
v  0.0000 -0.9707 -7.2039
v  0.3911 -2.2501 -8.1772
v  0.3911 -2.2501 -8.7135
v  0.3911 -1.5939 -8.5377
v  0.3911 -0.9707 -8.7135
v  0.3911 -0.9707 -8.0579
v  0.0000 -2.2501 -8.1779
v  0.0000 -2.2501 -8.7135
v  0.0000 -0.9629 -8.0599
v  0.0000 -1.5939 -8.5377
v  0.0000 -2.1119 -8.3027
v  0.0000 -2.1119 -6.6451
v  0.3258 -2.1602 -6.6451
v  0.3258 -2.1602 -8.3027
v  0.0000 -2.2084 -6.6451
v  0.0000 -2.2084 -8.3027
v  0.1799 -1.4534 -7.8092
v  0.1799 -1.4511 -8.0162
v  0.1799 -0.9504 -8.0619
v  0.1799 -0.9504 -7.6836
v  0.0000 -1.4534 -7.8092
v  0.0000 -0.9504 -7.6836
v  0.0000 -1.4511 -8.0162
v  0.2795 -0.4081 -10.4453
v  0.0000 -0.4760 -10.4453
v  0.0000 -0.4231 -12.0072
v  0.2795 -0.3552 -12.0072
v  0.3774 1.8246 -10.3050
v  0.7090 1.3899 -10.1068
v  0.7306 1.3899 -12.0072
v  0.3917 1.8246 -12.0072
v  0.0000 1.8246 -10.3050
v  0.0000 1.8246 -12.0072
v  0.0000 -1.9749 -7.6831
v  -0.4884 -1.9994 -3.5615
v  -0.4884 -2.2434 -5.6351
v  -0.7550 1.4050 -10.3152
v  -0.2120 2.0639 -10.3152
v  -0.5117 0.3950 -10.3152
v  -0.7706 1.4050 -11.8652
v  -0.4884 -1.0337 -6.7351
v  -0.4662 -1.0337 -10.1269
v  -0.4884 -2.7137 -6.5020
v  -0.5384 -1.9494 -3.5615
v  -0.5384 0.3950 -3.5615
v  -0.5384 0.3950 -7.4170
v  -0.2102 -1.5945 -10.5267
v  -0.2102 -1.4108 -10.9319
v  -0.9720 0.3950 -3.5615
v  -0.9720 0.3950 -7.4170
v  -0.7817 1.4050 -7.4170
v  -0.2120 2.0639 -7.4170
v  -0.9720 2.1007 -7.4170
v  -0.9720 2.1007 -6.8383
v  -0.9720 0.7590 -6.8383
v  -0.9720 0.7590 -3.5615
v  -0.4362 -0.9905 -9.7487
v  -0.4578 -1.7653 -9.9536
v  -0.4578 -2.2536 -8.7073
v  -0.4362 -0.9905 -8.7050
v  -0.4580 -2.5165 -9.3941
v  -0.4580 -3.9149 -11.4789
v  -0.4580 -4.4710 -10.4101
v  -0.4580 -4.5803 -11.7441
v  -0.4580 -4.9258 -10.4172
v  -0.3911 -2.2501 -6.5482
v  -0.3911 -2.2501 -6.9650
v  -0.3911 -1.4639 -6.7861
v  -0.3911 -0.9707 -6.5482
v  -0.3911 -0.9707 -7.2039
v  -0.3911 -2.2501 -8.1772
v  -0.3911 -1.5939 -8.5377
v  -0.3911 -2.2501 -8.7135
v  -0.3911 -0.9707 -8.7135
v  -0.3911 -0.9707 -8.0579
v  -0.3258 -2.1602 -8.3027
v  -0.3258 -2.1602 -6.6451
v  -0.1799 -1.4534 -7.8092
v  -0.1799 -0.9504 -7.6836
v  -0.1799 -0.9504 -8.0619
v  -0.1799 -1.4511 -8.0162
v  -0.2795 -0.4081 -10.4453
v  -0.2795 -0.3552 -12.0072
v  -0.3774 1.8246 -10.3050
v  -0.3917 1.8246 -12.0072
v  -0.7306 1.3899 -12.0072
v  -0.7090 1.3899 -10.1068
v  -0.0000 -4.7341 -6.3214
v  0.3522 -4.7341 -6.3214
v  0.3522 -4.3296 -3.7638
v  -0.0000 -4.3296 -3.7638
v  0.3522 0.7495 -6.3214
v  0.3522 0.7495 -3.7638
v  -0.0000 0.7495 -3.7638
v  -0.0000 0.7495 -6.3214
v  -0.3522 -4.3296 -3.7638
v  -0.3522 -4.7341 -6.3214
v  -0.3522 0.7495 -3.7638
v  -0.3522 0.7495 -6.3214
v  0.0000 1.8281 -10.8676
v  0.0000 2.0734 -10.8676
v  0.6394 2.0736 -10.8328
v  0.6394 1.8281 -10.8328
v  0.0000 2.0741 -10.5032
v  0.6523 2.0741 -10.5032
v  0.0000 2.0049 -10.5032
v  0.3770 2.0049 -10.5032
v  0.8189 2.0739 -10.3002
v  0.6523 1.8281 -10.5032
v  0.8189 1.8281 -10.3002
v  0.3770 1.8281 -10.5032
v  0.1787 2.0049 -10.3196
v  0.1787 1.8281 -10.3196
v  -0.6394 2.0736 -10.8328
v  -0.6394 1.8281 -10.8328
v  -0.6523 2.0741 -10.5032
v  -0.3770 2.0049 -10.5032
v  -0.6523 1.8281 -10.5032
v  -0.8189 2.0739 -10.3002
v  -0.8189 1.8281 -10.3002
v  -0.3770 1.8281 -10.5032
v  -0.1787 2.0049 -10.3196
v  -0.1787 1.8281 -10.3196
# 693 vertices

vn 1.0000 -0.0000 -0.0000
vn 0.9782 0.2074 0.0040
vn 0.9842 0.1772 -0.0000
vn -0.0000 1.0000 0.0017
vn 0.0000 0.9998 0.0208
vn 0.9471 0.3154 0.0588
vn -0.0007 -0.9965 0.0840
vn 0.9954 -0.0949 0.0134
vn 0.0000 -0.9020 0.4317
vn 0.9765 -0.2000 0.0798
vn 0.0000 0.0375 0.9993
vn -0.0008 -0.7764 0.6303
vn 0.7766 0.1208 -0.6183
vn 0.0000 -0.8042 0.5943
vn 0.8612 0.2483 -0.4436
vn -0.0052 -0.9969 0.0789
vn 0.8387 0.5445 0.0087
vn 0.8726 0.4695 -0.1345
vn -0.0043 -0.9401 0.3408
vn 0.0000 0.5649 -0.8252
vn 0.0000 0.2479 -0.9688
vn 0.0000 0.9546 -0.2978
vn 0.0000 0.9999 0.0160
vn 0.0000 0.7310 0.6824
vn 0.2909 -0.9568 -0.0000
vn 0.0000 0.6226 0.7825
vn 0.3970 0.9178 -0.0000
vn -0.0000 1.0000 -0.0000
vn 0.0000 1.0000 -0.0000
vn 0.3052 -0.5874 0.7495
vn 0.0071 -0.6138 0.7895
vn 0.0034 -0.9163 0.4005
vn 0.3504 -0.8100 0.4703
vn 0.0067 0.6139 0.7894
vn 0.0071 0.6138 0.7895
vn 0.3052 0.5874 0.7495
vn 0.2499 0.5777 0.7771
vn 0.0000 -1.0000 -0.0000
vn 0.3970 -0.9178 -0.0000
vn 0.5941 0.7296 0.3386
vn 0.6182 0.5558 0.5558
vn 0.6314 0.0000 0.7755
vn 0.6182 -0.5558 0.5558
vn 1.0000 0.0000 0.0000
vn 1.0000 -0.0000 0.0000
vn 0.0000 0.0000 1.0000
vn 0.1428 -0.9898 0.0000
vn 0.1428 0.9898 -0.0000
vn 0.0000 0.0000 -1.0000
vn 0.0000 -1.0000 0.0000
vn 1.0000 0.0000 -0.0000
vn 0.0000 -0.5029 -0.8643
vn -0.0000 1.0000 0.0000
vn 0.9991 0.0235 -0.0351
vn -0.0000 -1.0000 0.0000
vn 0.0000 0.5029 0.8643
vn 0.0000 0.6715 0.7410
vn 0.9938 0.1094 -0.0209
vn 0.0000 -0.7169 -0.6971
vn -0.0000 -0.6192 0.7852
vn 0.0000 0.6209 -0.7839
vn 0.9866 0.1179 0.1130
vn 0.0000 1.0000 0.0000
vn -0.0000 -1.0000 -0.0000
vn 0.7608 -0.6490 0.0000
vn 0.7608 0.6490 0.0000
vn 0.9951 -0.0986 -0.0000
vn 0.9964 -0.0849 0.0081
vn 0.9965 -0.0824 0.0138
vn 0.0000 0.0805 -0.9968
vn 0.0000 0.3281 -0.9446
vn -0.0000 0.3281 -0.9446
vn 0.0000 0.9925 -0.1222
vn -0.0000 0.9925 -0.1222
vn 0.0000 0.8174 -0.5760
vn -0.0000 0.8174 -0.5760
vn 0.0062 -1.0000 -0.0000
vn 0.0028 -1.0000 0.0001
vn 0.8924 0.1432 -0.4280
vn 0.8925 0.1514 -0.4248
vn 0.8905 0.0365 -0.4535
vn 0.8906 0.0366 -0.4533
vn 0.8953 0.3657 -0.2543
vn 0.8950 0.3651 -0.2565
vn 0.8911 0.4506 -0.0535
vn 0.8902 0.4519 -0.0573
vn 0.8912 0.4536 -0.0000
vn 0.0000 -0.0000 1.0000
vn 0.9877 0.0188 0.1551
vn 0.9879 0.0751 0.1357
vn 0.9901 0.0280 0.1375
vn 0.0000 -0.9981 0.0616
vn 0.0000 -0.9984 0.0563
vn 0.4118 -0.9096 0.0552
vn 0.4169 -0.9069 0.0607
vn -0.0000 0.9634 0.2681
vn 0.0000 0.9601 0.2796
vn 0.3629 0.8959 0.2563
vn 0.3859 0.8897 0.2441
vn 0.2545 -0.9671 -0.0000
vn 0.2545 0.9671 -0.0000
vn 0.7071 -0.7071 -0.0000
vn 0.4762 0.8794 0.0000
vn 0.4649 0.8854 -0.0000
vn 0.4649 -0.8854 -0.0000
vn 0.8112 -0.5848 0.0000
vn 0.6512 -0.4695 -0.5962
vn 0.6512 0.4695 -0.5962
vn 0.8112 0.5848 0.0000
vn -0.0000 0.7663 -0.6424
vn 0.0000 -0.7663 -0.6424
vn 0.8223 -0.5691 -0.0000
vn 0.8535 -0.5210 -0.0000
vn -0.0000 -0.1288 -0.9917
vn -0.0000 -0.1373 -0.9905
vn 0.0527 -0.1294 -0.9902
vn 1.0000 0.0003 0.0011
vn 1.0000 -0.0018 0.0010
vn 0.0000 -0.9654 0.2609
vn 0.0000 -0.9647 0.2635
vn 0.0000 -0.8695 0.4940
vn 0.0000 -0.8697 0.4936
vn 0.0000 -0.5127 0.8586
vn -0.0000 0.5155 -0.8569
vn 0.0000 0.5155 -0.8569
vn -0.0000 0.8707 -0.4918
vn 0.0000 0.8705 -0.4922
vn -0.0000 0.9660 -0.2586
vn 0.0000 0.9669 -0.2553
vn 0.9995 -0.0184 0.0240
vn 0.9996 -0.0190 0.0226
vn 0.9984 -0.0183 0.0540
vn 0.9981 -0.0210 0.0572
vn 0.0000 -0.8639 0.5037
vn -0.0000 0.8697 -0.4936
vn 0.0000 0.8697 -0.4936
vn 0.9208 0.3849 -0.0637
vn 0.1396 0.7210 -0.6787
vn 0.8125 -0.3921 -0.4314
vn 0.3522 -0.8490 -0.3938
vn -0.2911 -0.9080 -0.3013
vn -0.9980 -0.0475 -0.0406
vn -0.3214 0.9344 -0.1533
vn 0.8416 -0.1569 -0.5168
vn 0.9826 0.0561 0.1768
vn 0.9870 0.1093 0.1179
vn 0.9988 -0.0039 0.0485
vn 0.9988 -0.0151 0.0458
vn 0.9985 -0.0422 0.0356
vn -0.9468 -0.1028 -0.3050
vn -0.9943 -0.0012 -0.1062
vn 0.0000 0.3594 -0.9332
vn -1.0000 -0.0000 -0.0000
vn -0.9782 0.2074 0.0040
vn -0.9842 0.1772 -0.0000
vn -0.8419 0.5394 -0.0145
vn -0.9742 0.2094 0.0837
vn -0.9953 -0.0962 0.0117
vn -0.9765 -0.2000 0.0798
vn -0.7773 0.1202 -0.6176
vn -0.8612 0.2483 -0.4436
vn -0.8766 0.4566 -0.1522
vn -0.8467 0.5313 0.0295
vn -0.2909 -0.9568 -0.0000
vn -0.0000 0.6226 0.7825
vn -0.3970 0.9178 -0.0000
vn -0.3631 -0.8134 0.4545
vn -0.3280 -0.5636 0.7582
vn -0.2753 0.5932 0.7566
vn -0.3280 0.5636 0.7582
vn -0.3970 -0.9178 -0.0000
vn -0.5941 0.7296 0.3386
vn -0.6182 0.5558 0.5558
vn -0.6314 0.0000 0.7755
vn -0.6182 -0.5558 0.5558
vn -1.0000 0.0000 -0.0000
vn -1.0000 0.0000 0.0000
vn -1.0000 -0.0000 0.0000
vn -0.1427 -0.9898 0.0000
vn -0.9991 0.0235 -0.0351
vn -0.1428 0.9898 -0.0000
vn -0.0000 0.5029 0.8643
vn -0.9938 0.1094 -0.0209
vn -0.0000 -0.7169 -0.6971
vn 0.0474 0.6926 0.7197
vn 0.0000 -0.6192 0.7852
vn -0.9866 0.1179 0.1130
vn -0.7608 -0.6490 -0.0000
vn -0.7608 0.6490 -0.0000
vn -0.9951 -0.0986 -0.0000
vn -0.9964 -0.0849 0.0081
vn -0.9965 -0.0824 0.0138
vn -0.0062 -1.0000 -0.0000
vn -0.0028 -1.0000 0.0001
vn -0.8905 0.0364 -0.4535
vn -0.8906 0.0362 -0.4533
vn -0.8926 0.1515 -0.4247
vn -0.8923 0.1434 -0.4281
vn -0.8950 0.3651 -0.2565
vn -0.8953 0.3657 -0.2543
vn -0.8902 0.4519 -0.0573
vn -0.8911 0.4506 -0.0535
vn -0.8912 0.4536 -0.0000
vn -0.0000 -0.0000 1.0000
vn -0.9877 0.0188 0.1551
vn -0.9901 0.0280 0.1375
vn -0.9879 0.0751 0.1357
vn -0.4118 -0.9096 0.0552
vn -0.4169 -0.9069 0.0607
vn -0.3629 0.8959 0.2563
vn -0.3859 0.8897 0.2441
vn -0.2545 -0.9671 -0.0000
vn -0.2545 0.9671 -0.0000
vn -0.7071 -0.7071 -0.0000
vn -0.4762 0.8794 0.0000
vn -0.4649 0.8854 -0.0000
vn -0.4649 -0.8854 -0.0000
vn -0.8112 -0.5848 0.0000
vn -0.8112 0.5848 0.0000
vn -0.6512 0.4695 -0.5962
vn -0.6512 -0.4695 -0.5962
vn -0.8223 -0.5691 -0.0000
vn -0.8535 -0.5210 -0.0000
vn -0.0527 -0.1294 -0.9902
vn 0.0000 0.1373 0.9905
vn -0.0527 0.1294 0.9902
vn 0.0000 0.1383 0.9904
vn -1.0000 0.0003 0.0011
vn -1.0000 -0.0018 0.0010
vn 0.0000 0.8707 -0.4918
vn 0.0000 0.9660 -0.2586
vn -0.9995 -0.0184 0.0240
vn -0.9981 -0.0210 0.0572
vn -0.9984 -0.0183 0.0540
vn -0.9996 -0.0190 0.0226
vn -0.9208 0.3849 -0.0637
vn -0.1396 0.7210 -0.6787
vn -0.8125 -0.3921 -0.4314
vn -0.3522 -0.8490 -0.3938
vn 0.2911 -0.9080 -0.3013
vn 0.9980 -0.0475 -0.0406
vn -0.8416 -0.1569 -0.5168
vn -0.9826 0.0561 0.1768
vn -0.9870 0.1093 0.1179
vn -0.9988 -0.0151 0.0458
vn -0.9988 -0.0039 0.0485
vn -0.9985 -0.0422 0.0356
vn 0.9468 -0.1028 -0.3050
vn 0.9983 -0.0590 0.0000
vn 0.8693 -0.4942 0.0000
vn 0.8145 0.0455 -0.5784
vn 0.8271 -0.0488 -0.5599
vn 0.3216 0.9469 0.0000
vn 0.2468 0.7265 -0.6413
vn 0.0000 0.7072 -0.7070
vn 0.0759 0.9939 -0.0805
vn 0.0000 0.9968 -0.0802
vn -0.0000 0.6762 -0.7367
vn 0.5183 -0.0000 0.8552
vn 0.0000 -0.5985 0.8011
vn 0.8883 0.4592 0.0000
vn 0.8883 -0.4592 -0.0000
vn 0.8883 -0.4592 0.0000
vn -0.4640 0.8858 -0.0000
vn -0.4640 -0.8858 -0.0000
vn 0.9095 0.4150 0.0229
vn 0.8271 0.5614 0.0277
vn 0.8371 0.5471 -0.0000
vn 0.7941 0.6078 0.0022
vn 0.9488 0.3158 0.0034
vn 0.8053 0.5929 0.0039
vn 0.8066 0.5910 0.0010
vn 0.6463 -0.7631 0.0000
vn 0.6459 -0.7634 0.0000
vn 0.6460 -0.7633 0.0000
vn 0.9029 -0.4299 0.0000
vn -0.9983 -0.0590 0.0000
vn -0.8271 -0.0488 -0.5599
vn -0.8145 0.0455 -0.5784
vn -0.8693 -0.4942 0.0000
vn -0.2468 0.7265 -0.6413
vn -0.3216 0.9469 0.0000
vn -0.0759 0.9939 -0.0805
vn -0.5183 -0.0000 0.8552
vn -0.8883 0.4592 0.0000
vn -0.8883 -0.4592 -0.0000
vn -0.8883 -0.4592 0.0000
vn 0.4640 0.8858 -0.0000
vn 0.4640 -0.8858 -0.0000
vn -0.9160 0.4004 0.0253
vn -0.7900 0.6130 0.0054
vn -0.9765 0.2153 -0.0002
vn -0.8043 0.5942 0.0039
vn -0.8035 0.5954 0.0010
vn -0.9492 0.3148 0.0027
vn -0.7947 0.6071 0.0035
vn -0.6463 -0.7631 0.0000
vn -0.9029 -0.4299 0.0000
vn -0.6460 -0.7633 0.0000
vn -0.6459 -0.7634 0.0000
vn 0.4592 -0.8883 0.0000
vn -0.4592 -0.8883 -0.0000
vn -0.4592 -0.8883 0.0000
vn 0.8858 0.4640 -0.0000
vn -0.8858 0.4640 -0.0000
vn 0.8255 0.5643 0.0000
vn 0.9555 0.2951 0.0000
vn 0.8680 -0.4966 0.0000
vn 0.9999 -0.0160 0.0000
vn 0.9999 -0.0160 -0.0000
vn 0.2782 0.9605 0.0000
vn 0.8867 -0.4624 0.0000
vn -0.9555 0.2951 0.0000
vn -0.8255 0.5643 0.0000
vn -0.8680 -0.4966 0.0000
vn -0.9999 -0.0160 -0.0000
vn -0.9999 -0.0160 0.0000
vn -0.2782 0.9605 0.0000
vn -0.8332 -0.5528 0.0133
vn -0.8867 -0.4624 0.0000
vn -0.8867 -0.4623 0.0010
vn -0.9547 -0.2975 0.0076
vn -0.9769 0.2135 -0.0000
vn -0.9733 -0.2295 -0.0000
vn 0.9733 -0.2295 -0.0000
vn 0.9769 0.2135 -0.0000
vn 0.9765 0.2153 -0.0002
vn 0.4456 -0.0000 0.8952
vn 0.0012 0.4427 0.8967
vn 0.0012 -0.4427 0.8967
vn 0.0000 0.4614 -0.8872
vn 0.4614 0.0000 -0.8872
vn -0.0000 -0.4614 -0.8872
vn -0.6837 -0.0000 -0.7298
vn 0.0000 -0.6837 -0.7298
vn -0.0000 0.6837 -0.7298
vn 0.0002 -0.6834 0.7301
vn -0.6855 0.0000 0.7281
vn 0.0002 0.6834 0.7301
vn -0.4465 -0.0000 0.8948
vn -0.4614 0.0000 -0.8872
vn 0.6837 -0.0000 -0.7298
vn 0.6855 0.0000 0.7280
vn 0.5941 -0.7296 0.3386
vn 0.0000 0.9698 0.2441
vn 0.0000 0.5985 0.8011
vn 0.2909 0.9568 -0.0000
vn -0.2909 0.9568 -0.0000
vn -0.5941 -0.7296 0.3386
vn 0.9912 -0.1007 -0.0857
vn -0.9912 -0.1007 -0.0857
vn -0.0474 0.6926 0.7197
vn 0.7976 -0.6032 0.0010
vn 0.7989 -0.6014 -0.0000
vn 0.7900 0.6130 0.0054
vn -0.7989 -0.6014 0.0000
vn -0.7976 -0.6032 0.0010
vn -0.8371 0.5471 0.0000
vn 0.7298 -0.6716 -0.1283
vn -0.7298 -0.6716 -0.1283
vn 0.7348 -0.6766 0.0482
vn -0.7348 -0.6766 0.0482
vn 0.3214 0.9344 -0.1533
vn 0.9943 -0.0012 -0.1062
vn -0.0000 -0.1383 -0.9904
vn 0.0000 -0.1383 -0.9904
vn 0.0527 0.1294 0.9902
vn 0.0000 0.1288 0.9917
vn 0.9995 0.0309 0.0000
vn 0.9995 0.0308 0.0000
vn 0.8132 0.5820 0.0000
vn 0.8131 0.5822 0.0001
vn 0.8035 0.5953 0.0001
vn 0.8032 0.5957 0.0001
vn 0.8518 -0.5239 0.0000
vn 0.8518 -0.5238 0.0000
vn -0.8131 0.5822 0.0000
vn -0.8132 0.5820 0.0001
vn -0.9995 0.0308 0.0000
vn -0.9995 0.0309 0.0000
vn -0.8032 0.5957 0.0001
vn -0.8035 0.5953 0.0001
vn -0.8518 -0.5239 0.0000
vn -0.8518 -0.5238 0.0000
vn 0.0000 -0.9532 0.3023
vn 0.0000 -0.9932 0.1168
vn 0.0000 -0.8378 -0.5460
vn 0.0000 -0.3946 -0.9189
vn 0.0000 -0.3260 -0.9454
vn 0.0000 -0.8790 0.4769
vn 0.0000 -0.1374 -0.9905
vn 0.9351 -0.3531 0.0312
vn 0.9997 -0.0239 -0.0066
vn 0.9999 -0.0094 -0.0115
vn 0.9993 -0.0362 -0.0046
vn 0.0000 -0.9108 -0.4129
vn 0.0000 0.3232 -0.9463
vn 0.0000 -0.5805 0.8142
vn -0.0414 0.9991 -0.0092
vn -0.0440 0.9990 -0.0057
vn -0.0484 0.9988 0.0000
vn -0.0189 0.9998 0.0056
vn 0.9851 -0.0852 -0.1492
vn 0.9963 -0.0417 -0.0753
vn 0.9981 0.0621 -0.0023
vn 0.9722 -0.2342 -0.0017
vn 0.9721 -0.2342 0.0098
vn 0.9724 0.2333 -0.0058
vn 0.9722 -0.2342 -0.0089
vn 0.9065 0.1103 -0.4075
vn 0.7028 0.0108 0.7113
vn 0.6331 -0.4041 0.6602
vn 0.8899 0.2034 -0.4082
vn -0.0000 0.4235 -0.9059
vn 0.0000 0.1974 -0.9803
vn 0.9093 -0.2793 0.3085
vn 0.8683 0.2452 -0.4311
vn 0.0000 0.4875 -0.8731
vn 0.9109 -0.1079 0.3983
vn 0.7154 -0.6432 0.2729
vn 0.7145 -0.4648 -0.5229
vn -0.0000 -0.3267 -0.9451
vn 0.0000 -0.1712 0.9852
vn 0.0000 -0.6557 0.7550
vn 0.0000 -0.7001 0.7141
vn -0.0000 -0.0017 1.0000
vn -0.0000 -0.5670 0.8237
vn 0.0000 -0.6258 -0.7800
vn 0.5653 -0.5141 -0.6450
vn 0.7071 -0.7071 0.0000
vn 0.8227 -0.1349 -0.5522
vn -0.0000 -0.2376 -0.9714
vn 0.4837 -0.5657 -0.6679
vn 0.0000 -0.6463 -0.7630
vn 0.5549 -0.4232 0.7163
vn 0.8531 -0.0402 0.5202
vn 0.4927 -0.5270 0.6925
vn 0.0000 -0.5097 0.8603
vn 0.0000 -0.9408 -0.3390
vn -0.0000 -0.0761 0.9971
vn 0.7805 -0.1507 0.6068
vn 0.6724 -0.2974 -0.6779
vn 0.7004 -0.0649 -0.7108
vn 0.6451 -0.1852 0.7414
vn -0.0000 -0.0038 1.0000
vn 0.0000 -0.2424 0.9702
vn 0.0000 -0.3220 -0.9468
vn 0.7230 -0.6907 -0.0175
vn 0.0000 -0.9994 -0.0339
vn -0.0000 -0.7423 -0.6701
vn 0.5570 -0.5563 -0.6167
vn 0.4833 0.8754 0.0053
vn 0.9839 0.1786 0.0112
vn 0.7696 0.1622 -0.6176
vn 0.3462 0.7050 -0.6190
vn 0.0000 0.7071 -0.7071
vn -0.0000 -0.9217 0.3878
vn 0.7689 0.6393 -0.0058
vn 0.7565 0.6540 -0.0000
vn 0.9564 -0.2046 -0.2083
vn -0.0000 0.9999 -0.0139
vn 0.7047 -0.7047 0.0829
vn 0.9997 -0.0187 -0.0124
vn -0.9351 -0.3531 0.0312
vn -0.9999 -0.0094 -0.0115
vn -0.9997 -0.0239 -0.0066
vn -0.9993 -0.0362 -0.0046
vn 0.0414 0.9991 -0.0092
vn 0.0484 0.9988 0.0000
vn 0.0440 0.9990 -0.0057
vn 0.0189 0.9998 0.0056
vn -0.9851 -0.0852 -0.1492
vn -0.9963 -0.0417 -0.0753
vn -0.9981 0.0621 -0.0023
vn -0.9721 -0.2342 0.0098
vn -0.9722 -0.2342 -0.0017
vn -0.9722 -0.2342 -0.0089
vn -0.9724 0.2333 -0.0058
vn -0.9065 0.1103 -0.4075
vn -0.8899 0.2034 -0.4082
vn -0.6331 -0.4041 0.6602
vn -0.7028 0.0108 0.7113
vn -0.9093 -0.2793 0.3085
vn -0.8683 0.2452 -0.4311
vn -0.9109 -0.1079 0.3983
vn -0.7145 -0.4648 -0.5229
vn -0.7154 -0.6432 0.2729
vn -0.5653 -0.5141 -0.6450
vn -0.8227 -0.1349 -0.5522
vn -0.4837 -0.5657 -0.6679
vn -0.5549 -0.4232 0.7163
vn -0.8531 -0.0402 0.5202
vn -0.4927 -0.5270 0.6925
vn -0.7805 -0.1507 0.6068
vn -0.6451 -0.1852 0.7414
vn -0.7004 -0.0649 -0.7108
vn -0.6724 -0.2974 -0.6779
vn -0.7270 -0.6862 -0.0232
vn -0.5608 -0.5545 -0.6148
vn -0.4833 0.8754 0.0053
vn -0.3462 0.7050 -0.6190
vn -0.7715 0.1590 -0.6161
vn -0.9846 0.1747 0.0062
vn -0.7689 0.6393 -0.0058
vn -0.7565 0.6540 -0.0000
vn -0.9564 -0.2046 -0.2083
vn -0.9352 -0.3226 -0.1463
vn -0.9997 -0.0187 -0.0124
vn -0.7047 -0.7047 0.0829
vn 0.9352 -0.3226 -0.1463
vn 0.0000 -0.7603 -0.6495
vn 0.5695 -0.6250 -0.5339
vn 0.5860 -0.5263 0.6161
vn 0.0000 -0.6495 0.7603
vn 0.7071 0.0000 -0.7071
vn 0.7071 0.0000 0.7071
vn -0.5860 -0.5263 0.6161
vn -0.5695 -0.6250 -0.5339
vn -0.7071 -0.0000 0.7071
vn -0.7071 -0.0000 -0.7071
vn 0.0000 -0.4144 -0.9101
vn -0.0000 0.6944 -0.7196
vn 0.4842 0.5995 -0.6373
vn 0.4842 -0.6000 -0.6369
vn 0.0000 0.7078 0.7064
vn -0.2450 0.8181 0.5203
vn 0.0000 0.4534 0.8913
vn 0.1777 0.1244 0.9762
vn 0.4084 0.5391 0.7366
vn -0.2465 -0.8171 0.5212
vn 0.4084 -0.5391 0.7366
vn 0.2834 -0.6300 0.7230
vn 0.4767 0.7126 0.5147
vn 0.6795 0.0000 0.7337
vn -0.4842 0.5995 -0.6373
vn -0.4842 -0.6000 -0.6369
vn 0.2450 0.8181 0.5203
vn -0.1777 0.1244 0.9762
vn 0.2465 -0.8171 0.5212
vn -0.4084 0.5391 0.7366
vn -0.4084 -0.5391 0.7366
vn -0.2834 -0.6300 0.7230
vn -0.4767 0.7126 0.5147
vn -0.6795 -0.0000 0.7337
vn -0.8116 0.5804 0.0664
# 545 vertex normals

vt 0.6346 0.2031 0.0000
vt 0.6501 0.1822 0.0000
vt 0.6501 0.2239 0.0000
vt 0.5768 0.0294 0.0000
vt 0.8405 0.0295 0.0000
vt 0.8403 0.0661 0.0000
vt 0.5764 0.0594 0.0000
vt 0.5289 0.0409 0.0000
vt 0.5296 0.0306 0.0000
vt 0.5296 0.0293 0.0000
vt 0.6651 0.0972 0.0000
vt 0.6653 0.1588 0.0000
vt 0.6088 0.1055 0.0000
vt 0.5995 0.1558 0.0000
vt 0.5532 0.1476 0.0000
vt 0.8287 0.0889 0.0000
vt 0.8631 0.1586 0.0000
vt 0.8691 0.0542 0.0000
vt 0.8855 0.0711 0.0000
vt 0.9816 0.0242 0.0000
vt 0.9705 0.0547 0.0000
vt 0.9097 0.0538 0.0000
vt 0.9008 0.0348 0.0000
vt 0.6313 0.0050 0.0000
vt 0.8137 0.0050 0.0000
vt 0.8137 0.0158 0.0000
vt 0.6313 0.0158 0.0000
vt 0.8733 0.0050 0.0000
vt 0.8733 0.0158 0.0000
vt 0.9963 0.0051 0.0000
vt 0.9963 0.0159 0.0000
vt 0.8856 0.0921 0.0000
vt 0.8878 0.0922 0.0000
vt 0.8872 0.2227 0.0000
vt 0.8834 0.2227 0.0000
vt 0.5383 0.0731 0.0000
vt 0.4375 0.0731 0.0000
vt 0.4344 0.0581 0.0000
vt 0.5352 0.0581 0.0000
vt 0.4546 0.0332 0.0000
vt 0.4480 0.0162 0.0000
vt 0.5080 0.0162 0.0000
vt 0.5014 0.0332 0.0000
vt 0.8655 0.2239 0.0000
vt 0.8656 0.2385 0.0000
vt 0.6501 0.2385 0.0000
vt 0.6287 0.1969 0.0000
vt 0.6183 0.1873 0.0000
vt 0.6463 0.1688 0.0000
vt 0.6463 0.2373 0.0000
vt 0.6183 0.2189 0.0000
vt 0.6287 0.2092 0.0000
vt 0.6501 0.1676 0.0000
vt 0.8656 0.1676 0.0000
vt 0.8655 0.1822 0.0000
vt 0.9613 0.1854 0.0000
vt 0.9371 0.1605 0.0000
vt 0.9540 0.1504 0.0000
vt 0.9713 0.1681 0.0000
vt 0.9266 0.1272 0.0000
vt 0.9371 0.0939 0.0000
vt 0.9540 0.1040 0.0000
vt 0.9466 0.1272 0.0000
vt 0.9734 0.1514 0.0000
vt 0.9734 0.1082 0.0000
vt 0.9949 0.0982 0.0000
vt 0.9949 0.1614 0.0000
vt 0.4959 0.3331 0.0000
vt 0.5829 0.3331 0.0000
vt 0.5713 0.3530 0.0000
vt 0.4674 0.3530 0.0000
vt 0.4195 0.2437 0.0000
vt 0.4563 0.2490 0.0000
vt 0.4563 0.3547 0.0000
vt 0.4195 0.3600 0.0000
vt 0.4674 0.2251 0.0000
vt 0.4959 0.2251 0.0000
vt 0.4959 0.2589 0.0000
vt 0.4674 0.2589 0.0000
vt 0.5741 0.3868 0.0000
vt 0.4674 0.3868 0.0000
vt 0.5179 0.1418 0.0000
vt 0.5179 0.1725 0.0000
vt 0.4482 0.1725 0.0000
vt 0.4438 0.1418 0.0000
vt 0.6526 0.2453 0.0000
vt 0.6526 0.2760 0.0000
vt 0.5709 0.2760 0.0000
vt 0.5709 0.2453 0.0000
vt 0.5945 0.3530 0.0000
vt 0.5829 0.3730 0.0000
vt 0.6743 0.2453 0.0000
vt 0.6743 0.2760 0.0000
vt 0.8861 0.2633 0.0000
vt 0.8803 0.4251 0.0000
vt 0.8556 0.4251 0.0000
vt 0.8556 0.2633 0.0000
vt 0.7720 0.3530 0.0000
vt 0.7569 0.3730 0.0000
vt 0.8408 0.2603 0.0000
vt 0.8408 0.2702 0.0000
vt 0.8556 0.2470 0.0000
vt 0.8861 0.2419 0.0000
vt 0.8762 0.4735 0.0000
vt 0.7870 0.3724 0.0000
vt 0.8171 0.4015 0.0000
vt 0.7920 0.4115 0.0000
vt 0.5876 0.3969 0.0000
vt 0.5960 0.5219 0.0000
vt 0.5783 0.4594 0.0000
vt 0.5717 0.3969 0.0000
vt 0.6117 0.3969 0.0000
vt 0.6117 0.5219 0.0000
vt 0.8126 0.4330 0.0000
vt 0.8477 0.4321 0.0000
vt 0.8480 0.4425 0.0000
vt 0.8128 0.4435 0.0000
vt 0.7587 0.3227 0.0000
vt 0.7587 0.3326 0.0000
vt 0.7365 0.3284 0.0000
vt 0.7365 0.3185 0.0000
vt 0.8411 0.3868 0.0000
vt 0.8298 0.3868 0.0000
vt 0.8250 0.3538 0.0000
vt 0.8363 0.3538 0.0000
vt 0.7870 0.3343 0.0000
vt 0.8065 0.3482 0.0000
vt 0.7060 0.3284 0.0000
vt 0.7060 0.3185 0.0000
vt 0.8250 0.2892 0.0000
vt 0.8363 0.2892 0.0000
vt 0.7870 0.3019 0.0000
vt 0.8065 0.2880 0.0000
vt 0.6055 0.3284 0.0000
vt 0.6055 0.3185 0.0000
vt 0.6486 0.2892 0.0000
vt 0.6486 0.3006 0.0000
vt 0.5128 0.3006 0.0000
vt 0.5128 0.2892 0.0000
vt 0.6799 0.3019 0.0000
vt 0.6799 0.2880 0.0000
vt 0.8346 0.7636 0.0000
vt 0.8631 0.7636 0.0000
vt 0.8631 0.8436 0.0000
vt 0.8346 0.8436 0.0000
vt 0.8346 0.7269 0.0000
vt 0.8631 0.7269 0.0000
vt 0.8631 0.7405 0.0000
vt 0.8346 0.7405 0.0000
vt 0.8917 0.8611 0.0000
vt 0.8781 0.8611 0.0000
vt 0.8781 0.7460 0.0000
vt 0.8917 0.7460 0.0000
vt 0.8060 0.7460 0.0000
vt 0.8197 0.7460 0.0000
vt 0.8197 0.8611 0.0000
vt 0.8060 0.8611 0.0000
vt 0.8631 0.8667 0.0000
vt 0.8346 0.8667 0.0000
vt 0.2685 0.6117 0.0000
vt 0.3582 0.6117 0.0000
vt 0.3583 0.6512 0.0000
vt 0.2686 0.6512 0.0000
vt 0.4046 0.6512 0.0000
vt 0.2693 0.5922 0.0000
vt 0.3590 0.5922 0.0000
vt 0.3590 0.6034 0.0000
vt 0.2693 0.6034 0.0000
vt 0.4504 0.5922 0.0000
vt 0.4504 0.6034 0.0000
vt 0.4831 0.6750 0.0000
vt 0.4610 0.6750 0.0000
vt 0.4610 0.6637 0.0000
vt 0.4831 0.6637 0.0000
vt 0.4053 0.6749 0.0000
vt 0.3583 0.6749 0.0000
vt 0.3583 0.6637 0.0000
vt 0.4054 0.6637 0.0000
vt 0.2686 0.6749 0.0000
vt 0.2686 0.6637 0.0000
vt 0.4617 0.6519 0.0000
vt 0.4617 0.6014 0.0000
vt 0.4729 0.6014 0.0000
vt 0.4729 0.6519 0.0000
vt 0.4349 0.6750 0.0000
vt 0.4350 0.6637 0.0000
vt 0.3590 0.6052 0.0000
vt 0.2693 0.6052 0.0000
vt 0.4393 0.6091 0.0000
vt 0.4490 0.6343 0.0000
vt 0.4369 0.6309 0.0000
vt 0.4386 0.6118 0.0000
vt 0.4511 0.6122 0.0000
vt 0.4343 0.6561 0.0000
vt 0.4272 0.6457 0.0000
vt 0.4747 0.6015 0.0000
vt 0.4786 0.6408 0.0000
vt 0.3111 0.6931 0.0000
vt 0.2762 0.7516 0.0000
vt 0.2625 0.6932 0.0000
vt 0.3517 0.6879 0.0000
vt 0.3597 0.7364 0.0000
vt 0.3101 0.7408 0.0000
vt 0.1959 0.7643 0.0000
vt 0.2249 0.6838 0.0000
vt 0.2412 0.7835 0.0000
vt 0.4028 0.7003 0.0000
vt 0.3947 0.7053 0.0000
vt 0.3637 0.6974 0.0000
vt 0.3636 0.6826 0.0000
vt 0.4029 0.7569 0.0000
vt 0.3948 0.7518 0.0000
vt 0.3637 0.7721 0.0000
vt 0.3638 0.7598 0.0000
vt 0.2758 0.8105 0.0000
vt 0.2758 0.8351 0.0000
vt 0.2284 0.8351 0.0000
vt 0.2284 0.8105 0.0000
vt 0.2758 0.8684 0.0000
vt 0.2284 0.8684 0.0000
vt 0.2758 0.8930 0.0000
vt 0.2284 0.8930 0.0000
vt 0.6553 0.4211 0.0000
vt 0.6895 0.4211 0.0000
vt 0.6895 0.4646 0.0000
vt 0.6553 0.4646 0.0000
vt 0.6553 0.3823 0.0000
vt 0.6895 0.3823 0.0000
vt 0.6895 0.3969 0.0000
vt 0.6553 0.3969 0.0000
vt 0.6236 0.4817 0.0000
vt 0.6236 0.4040 0.0000
vt 0.6381 0.4040 0.0000
vt 0.6895 0.5034 0.0000
vt 0.6553 0.5034 0.0000
vt 0.7212 0.4817 0.0000
vt 0.6981 0.4611 0.0000
vt 0.7212 0.4732 0.0000
vt 0.6981 0.4246 0.0000
vt 0.7067 0.4040 0.0000
vt 0.7394 0.4977 0.0000
vt 0.7394 0.4701 0.0000
vt 0.7732 0.4701 0.0000
vt 0.7732 0.4977 0.0000
vt 0.7394 0.4342 0.0000
vt 0.7732 0.4342 0.0000
vt 0.7394 0.4066 0.0000
vt 0.7732 0.4066 0.0000
vt 0.8941 0.4351 0.0000
vt 0.9331 0.4351 0.0000
vt 0.9331 0.4751 0.0000
vt 0.8941 0.4751 0.0000
vt 0.9919 0.5122 0.0000
vt 0.9532 0.4994 0.0000
vt 0.9532 0.4479 0.0000
vt 0.9919 0.4350 0.0000
vt 0.6962 0.8889 0.0000
vt 0.7494 0.9067 0.0000
vt 0.7494 0.9776 0.0000
vt 0.6962 0.9954 0.0000
vt 0.8941 0.4015 0.0000
vt 0.9331 0.4015 0.0000
vt 0.9331 0.5087 0.0000
vt 0.8941 0.5087 0.0000
vt 0.6554 0.7681 0.0000
vt 0.6554 0.5129 0.0000
vt 0.6876 0.5129 0.0000
vt 0.6876 0.7681 0.0000
vt 0.7198 0.5129 0.0000
vt 0.7198 0.7681 0.0000
vt 0.9685 0.9116 0.0000
vt 0.9685 0.9417 0.0000
vt 0.8321 0.9607 0.0000
vt 0.8321 0.9306 0.0000
vt 0.9950 0.9952 0.0000
vt 0.8377 0.9952 0.0000
vt 0.9842 0.9710 0.0000
vt 0.9954 0.9116 0.0000
vt 0.9954 0.9417 0.0000
vt 0.8350 0.5556 0.0000
vt 0.8040 0.6070 0.0000
vt 0.7889 0.6070 0.0000
vt 0.8296 0.5389 0.0000
vt 0.7358 0.5667 0.0000
vt 0.7467 0.5667 0.0000
vt 0.7473 0.6738 0.0000
vt 0.7361 0.6739 0.0000
vt 0.7475 0.7711 0.0000
vt 0.7363 0.7711 0.0000
vt 0.7793 0.7403 0.0000
vt 0.7681 0.7404 0.0000
vt 0.7677 0.6668 0.0000
vt 0.7789 0.6668 0.0000
vt 0.7668 0.5610 0.0000
vt 0.7784 0.5609 0.0000
vt 0.9213 0.5556 0.0000
vt 0.9170 0.5389 0.0000
vt 0.9386 0.5176 0.0000
vt 0.9387 0.5373 0.0000
vt 0.7358 0.5295 0.0000
vt 0.7492 0.5295 0.0000
vt 0.7640 0.5301 0.0000
vt 0.7782 0.5300 0.0000
vt 0.2288 0.7931 0.0000
vt 0.1907 0.7786 0.0000
vt 0.2819 0.7628 0.0000
vt 0.2482 0.7934 0.0000
vt 0.3615 0.7477 0.0000
vt 0.3191 0.7524 0.0000
vt 0.2607 0.6420 0.0000
vt 0.2323 0.6531 0.0000
vt 0.2220 0.6181 0.0000
vt 0.2494 0.6108 0.0000
vt 0.2061 0.6293 0.0000
vt 0.1833 0.6227 0.0000
vt 0.1542 0.6126 0.0000
vt 0.1559 0.6085 0.0000
vt 0.1836 0.6181 0.0000
vt 0.2292 0.5921 0.0000
vt 0.1746 0.5922 0.0000
vt 0.3109 0.7536 0.0000
vt 0.9940 0.0894 0.0000
vt 0.9825 0.0894 0.0000
vt 0.9940 0.0226 0.0000
vt 0.8653 0.4990 0.0000
vt 0.8556 0.4990 0.0000
vt 0.9927 0.4379 0.0000
vt 0.8391 0.8766 0.0000
vt 0.9846 0.9009 0.0000
vt 0.8391 0.9009 0.0000
vt 0.0095 0.5430 -0.0141
vt 0.0095 0.5316 -0.0186
vt 0.4456 0.5316 -0.0186
vt 0.4456 0.5430 -0.0141
vt 0.0095 0.5828 -0.0271
vt 0.0095 0.5586 -0.0179
vt 0.4456 0.5586 -0.0179
vt 0.4456 0.5828 -0.0271
vt 0.4661 0.5655 0.4870
vt 0.4519 0.5655 0.5000
vt 0.4590 0.5579 0.4935
vt 0.5616 0.5355 0.4843
vt 0.5735 0.5534 0.4843
vt 0.4524 0.5536 0.4870
vt 0.4524 0.5355 0.4870
vt 0.5367 0.5143 -0.0293
vt 0.4456 0.5316 -0.0293
vt 0.5367 0.5041 -0.0293
vt 0.0940 0.3422 -0.0143
vt 0.0136 0.3422 -0.0143
vt 0.0136 0.3071 -0.0271
vt 0.0940 0.3071 -0.0271
vt 0.3208 0.2989 -0.0291
vt 0.3208 0.3451 -0.0163
vt 0.3731 0.3405 -0.0271
vt 0.3047 0.4417 0.0000
vt 0.0118 0.4417 0.0000
vt 0.0118 0.4844 0.0000
vt 0.3047 0.4844 0.0000
vt 0.3047 0.3984 0.0000
vt 0.0118 0.3984 0.0000
vt 0.3047 0.4844 0.2059
vt 0.0118 0.4844 0.2059
vt 0.0118 0.4938 0.2006
vt 0.3047 0.4938 0.2006
vt 0.0118 0.3984 -0.0698
vt 0.3047 0.3984 -0.0698
vt 0.3047 0.3898 -0.0752
vt 0.0118 0.3898 -0.0752
vt 0.7832 0.8145 0.0208
vt 0.7758 0.8046 0.0391
vt 0.7832 0.8046 0.0391
vt 0.6822 0.8317 -0.0157
vt 0.6562 0.8379 -0.0293
vt 0.6562 0.8046 0.0391
vt 0.6768 0.8046 0.0391
vt 0.7758 0.7966 0.0224
vt 0.6768 0.7966 0.0224
vt 0.6562 0.7930 0.0056
vt 0.7832 0.7930 0.0056
vt 0.4519 0.5818 0.5000
vt 0.4661 0.5818 0.4870
vt 0.5473 0.5246 -0.0293
vt 0.7704 0.8317 -0.0157
vt 0.7919 0.8380 -0.0293
vt 0.2050 0.1775 -0.0048
vt 0.4069 0.1775 -0.0048
vt 0.4069 0.2304 -0.0150
vt 0.2050 0.2304 -0.0150
vt 0.4069 0.2460 -0.0186
vt 0.2050 0.2460 -0.0186
vt 0.4069 0.2580 -0.0141
vt 0.2050 0.2580 -0.0141
vt 0.4069 0.2735 -0.0179
vt 0.4069 0.2928 -0.0271
vt 0.2050 0.2928 -0.0271
vt 0.2050 0.2735 -0.0179
vt 0.2050 0.0429 -0.0178
vt 0.4069 0.0429 -0.0178
vt 0.4069 0.0966 -0.0048
vt 0.2050 0.0966 -0.0048
vt 0.2050 0.0527 -0.0178
vt 0.7920 0.8145 0.0208
vt 0.7920 0.7930 0.0056
vt 0.0540 0.9265 -0.1017
vt 0.1287 0.9265 -0.1017
vt 0.1287 0.9973 -0.1195
vt 0.0540 0.9973 -0.1195
vt 0.0540 0.8533 -0.1195
vt 0.1287 0.8533 -0.1195
vt 0.6493 0.9973 -0.1186
vt 0.5941 0.9973 -0.1186
vt 0.5941 0.9265 -0.1047
vt 0.6493 0.9265 -0.1047
vt 0.5941 0.8533 -0.1186
vt 0.6493 0.8533 -0.1186
vt 0.6874 0.9265 -0.1063
vt 0.6874 0.9973 -0.1186
vt 0.6874 0.8533 -0.1186
vt 0.0054 0.9973 -0.1195
vt 0.0054 0.9265 -0.1039
vt 0.0054 0.8533 -0.1195
vt 0.8974 0.6828 0.0000
vt 0.9480 0.6828 0.0000
vt 0.9480 0.7324 0.0000
vt 0.9480 0.6334 0.0000
vt 0.9985 0.6828 0.0000
vt 0.9613 0.0690 0.0000
vt 0.9713 0.0863 0.0000
vt 0.9634 0.1298 0.0000
vt 0.5988 0.1618 0.0000
vt 0.0940 0.3774 -0.0271
vt 0.0136 0.3774 -0.0271
vt 0.3208 0.3359 -0.0163
vt 0.3208 0.3821 -0.0291
vt 0.5640 0.1186 0.0000
vt 0.4632 0.1186 0.0000
vt 0.4601 0.1036 0.0000
vt 0.5609 0.1036 0.0000
vt 0.9147 0.0841 0.0000
vt 0.9169 0.2147 0.0000
vt 0.2763 0.5039 -0.0293
vt 0.0095 0.5039 -0.0293
vt 0.0095 0.5316 -0.0293
vt 0.8377 0.9710 0.0000
vt 0.9955 0.8766 0.0000
vt 0.5577 0.4200 0.6711
vt 0.3310 0.4200 0.6711
vt 0.3310 0.4797 0.8292
vt 0.5577 0.4797 0.8293
vt 0.3432 0.4910 0.8617
vt 0.5453 0.4910 0.8617
vt 0.5577 0.3977 0.7347
vt 0.3310 0.3977 0.7347
vt 0.1802 0.7107 0.0000
vt 0.1619 0.7107 0.0000
vt 0.1619 0.6326 0.0000
vt 0.1801 0.6326 0.0000
vt 0.4230 0.9678 0.0000
vt 0.4230 0.9754 0.0000
vt 0.3993 0.9942 0.0000
vt 0.3993 0.9678 0.0000
vt 0.3434 0.9678 0.0000
vt 0.3434 0.9956 0.0000
vt 0.2767 0.9854 0.0000
vt 0.2767 0.9678 0.0000
vt 0.1802 0.9416 0.0000
vt 0.1628 0.9416 0.0000
vt 0.1619 0.8147 0.0000
vt 0.1802 0.8147 0.0000
vt 0.1802 0.7500 0.0000
vt 0.1619 0.7500 0.0000
vt 0.2932 0.8369 0.0000
vt 0.4066 0.8689 0.0000
vt 0.2934 0.9203 0.0000
vt 0.4304 0.9203 0.0000
vt 0.2076 0.9678 0.0000
vt 0.2076 0.9754 0.0000
vt 0.1915 0.9754 0.0000
vt 0.1915 0.9678 0.0000
vt 0.1802 0.9674 0.0000
vt 0.1724 0.9674 0.0000
vt 0.2787 0.7847 0.0000
vt 0.3836 0.7847 0.0000
vt 0.3836 0.7965 0.0000
vt 0.2787 0.7965 0.0000
vt 0.2141 0.8445 0.0000
vt 0.2039 0.8869 0.0000
vt 0.1959 0.8445 0.0000
vt 0.3370 0.9507 0.0000
vt 0.3220 0.9294 0.0000
vt 0.3378 0.9300 0.0000
vt 0.1965 0.9559 0.0000
vt 0.1965 0.9294 0.0000
vt 0.2856 0.9294 0.0000
vt 0.2856 0.9558 0.0000
vt 0.3210 0.9558 0.0000
vt 0.5268 0.8686 0.0000
vt 0.5339 0.9199 0.0000
vt 0.2278 0.9145 0.0000
vt 0.1959 0.9161 0.0000
vt 0.5337 0.9579 0.0000
vt 0.5888 0.9574 0.0000
vt 0.4304 0.9571 0.0000
vt 0.8544 0.7111 -0.0073
vt 0.8154 0.7111 -0.0073
vt 0.8155 0.6641 -0.0073
vt 0.8620 0.6823 -0.0073
vt 0.8749 0.6867 -0.0433
vt 0.8698 0.7119 -0.0433
vt 0.8411 0.6543 -0.0073
vt 0.9189 0.6023 -0.0073
vt 0.9333 0.6091 -0.0416
vt 0.8743 0.6883 -0.0419
vt 0.8617 0.6821 -0.0077
vt 0.8790 0.5816 -0.0073
vt 0.8793 0.5647 -0.0073
vt 0.9288 0.5776 -0.0073
vt 0.9447 0.5833 -0.0395
vt 0.9337 0.6082 -0.0390
vt 0.8649 0.5768 -0.0406
vt 0.8627 0.5634 -0.0406
vt 0.8266 0.6503 -0.0436
vt 0.8652 0.5745 -0.0427
vt 0.8155 0.6641 -0.0112
vt 0.8154 0.7111 -0.0112
vt 0.8044 0.7073 -0.0271
vt 0.8044 0.6593 -0.0271
vt 0.7981 0.9838 -0.0934
vt 0.8208 0.9966 -0.0906
vt 0.8208 0.9230 -0.1188
vt 0.7981 0.9349 -0.1125
vt 0.8251 0.6467 -0.0271
vt 0.8462 0.6521 -0.0106
vt 0.4571 0.6825 -0.0271
vt 0.4571 0.6992 -0.0123
vt 0.4115 0.6992 -0.0123
vt 0.4115 0.6825 -0.0271
vt 0.4375 0.7845 -0.0123
vt 0.4567 0.7811 -0.0271
vt 0.4733 0.6993 -0.0271
vt 0.4115 0.8382 -0.0123
vt 0.4832 0.8382 -0.0123
vt 0.4925 0.8212 -0.0271
vt 0.5080 0.6569 -0.0123
vt 0.5080 0.5998 -0.0123
vt 0.5780 0.6185 -0.0123
vt 0.6439 0.5998 -0.0123
vt 0.6439 0.6696 -0.0123
vt 0.4895 0.6567 -0.0271
vt 0.4895 0.5998 -0.0271
vt 0.6262 0.6820 -0.0271
vt 0.5782 0.6423 -0.0271
vt 0.5143 0.6812 -0.0271
vt 0.6414 0.8364 -0.0271
vt 0.5036 0.8364 -0.0271
vt 0.5036 0.8090 -0.0145
vt 0.6414 0.8090 -0.0145
vt 0.6414 0.7924 -0.0145
vt 0.5036 0.7924 -0.0145
vt 0.5036 0.7674 -0.0271
vt 0.6414 0.7674 -0.0271
vt 0.5368 0.7128 -0.0208
vt 0.5365 0.7354 -0.0208
vt 0.4821 0.7404 -0.0208
vt 0.4821 0.6990 -0.0208
vt 0.5392 0.6935 -0.0271
vt 0.4908 0.6812 -0.0271
vt 0.5426 0.7542 -0.0271
vt 0.4821 0.7609 -0.0271
vt 0.9215 0.7478 -0.0174
vt 0.9246 0.7381 -0.0271
vt 0.9805 0.7394 -0.0271
vt 0.9805 0.7498 -0.0174
vt 0.9160 0.8282 -0.0141
vt 0.9092 0.8145 0.0208
vt 0.9805 0.8145 0.0208
vt 0.9805 0.8282 -0.0141
vt 0.9160 0.8407 0.4655
vt 0.9160 0.8282 0.4655
vt 0.9805 0.8282 0.4655
vt 0.9805 0.8407 0.4655
vt 0.9756 0.5186 3.5301
vt 0.9813 0.6351 3.5301
vt 0.9987 0.6119 3.5301
vt 0.9215 0.7478 -0.0257
vt 0.9805 0.7498 -0.0257
vt 0.9755 0.5186 3.5301
vt 0.9623 0.5150 3.5301
vt 0.9623 0.6351 3.5301
vt 0.5935 0.6990 -0.0208
vt 0.5851 0.6823 -0.0271
vt 0.6068 0.7119 -0.0271
vt 0.5335 0.9880 0.0000
vt 0.4305 0.9883 0.0000
vt 0.5570 0.8549 0.0000
vt 0.2931 0.8344 0.0000
vt 0.3667 0.8257 0.0000
vt 0.5426 0.8478 0.0000
vt 0.3980 0.8094 0.0000
vt 0.1240 0.5959 -0.0271
vt 0.1277 0.6182 -0.0149
vt 0.0330 0.6331 -0.0149
vt 0.0288 0.6123 -0.0271
vt 0.1277 0.6182 -0.0182
vt 0.1277 0.8207 -0.0182
vt 0.0330 0.8207 -0.0182
vt 0.0330 0.6331 -0.0182
vt 0.0330 0.8207 -0.0149
vt 0.0118 0.8207 -0.0271
vt 0.0121 0.6332 -0.0271
vt 0.1486 0.8207 -0.0271
vt 0.1277 0.8207 -0.0149
vt 0.1487 0.6182 -0.0271
vt 0.0859 0.2448 0.0000
vt 0.0542 0.2448 0.0000
vt 0.0542 0.1612 0.0000
vt 0.0859 0.1612 0.0000
vt 0.1599 0.3805 0.0000
vt 0.1599 0.3502 0.0000
vt 0.2141 0.3502 0.0000
vt 0.2130 0.3776 0.0000
vt 0.0132 0.2605 0.0000
vt 0.0214 0.1832 0.0000
vt 0.0214 0.2278 0.0000
vt 0.0133 0.2952 0.0000
vt 0.0424 0.2605 0.0000
vt 0.0424 0.2952 0.0000
vt 0.0132 0.1832 0.0000
vt 0.1073 0.2896 0.0000
vt 0.0783 0.2880 0.0000
vt 0.0902 0.2730 0.0000
vt 0.0424 0.2278 0.0000
vt 0.1188 0.3807 0.0000
vt 0.1313 0.3678 0.0000
vt 0.1453 0.3807 0.0000
vt 0.1799 0.2737 -0.0223
vt 0.1798 0.3203 -0.0162
vt 0.1441 0.3202 -0.0162
vt 0.1442 0.2736 -0.0223
vt 0.0541 0.0864 0.0000
vt 0.0859 0.0864 0.0000
vt 0.0777 0.2730 0.0000
vt 0.0702 0.2638 0.0000
vt 0.2279 0.3334 0.0000
vt 0.7212 0.4125 0.0000
vt 0.7212 0.4040 0.0000
# 647 texture coords

g TG_sr25_sw6
usemtl sr25_sw6
s 4
f 1/1/1 2/2/1 3/3/1 
s 36
f 4/4/2 5/5/3 6/6/4 7/7/5 
s off
f 7/7/6 8/8/6 9/9/6 4/4/6 
f 4/4/1 9/9/1 10/10/1 
s 3
f 11/11/7 12/12/8 13/13/9 
f 12/12/8 14/14/10 15/15/11 13/13/9 
f 12/12/8 11/11/7 16/16/12 17/17/13 
f 16/16/12 18/18/14 19/19/15 17/17/13 
f 20/20/16 21/21/17 22/22/18 23/23/19 
f 19/19/15 18/18/14 23/23/19 22/22/18 
s 1
f 17/24/13 19/25/15 24/26/20 25/27/21 
f 19/25/15 22/28/18 26/29/22 24/26/20 
f 21/30/17 27/31/23 26/29/22 22/28/18 
s off
f 28/32/24 29/33/24 30/34/24 31/35/24 
f 32/36/25 33/37/25 34/38/25 35/39/25 
f 36/40/26 37/41/26 34/42/26 33/43/26 
s 32
f 38/44/27 39/45/28 40/46/29 3/3/27 
s 8
f 1/47/30 41/48/31 42/49/32 2/2/33 
s 1
f 40/50/34 41/51/35 1/52/36 3/3/37 
s 8
f 42/53/32 43/54/38 44/55/39 2/2/33 
f 45/56/40 46/57/41 47/58/41 48/59/40 
f 49/60/42 50/61/43 51/62/43 52/63/42 
s 1
f 47/64/44 51/65/44 53/66/44 48/67/44 
s off
f 54/68/45 55/69/45 56/70/45 57/71/45 
f 58/72/46 59/73/46 57/74/46 60/75/46 
f 58/76/47 61/77/47 62/78/47 59/79/47 
f 56/70/48 63/80/48 60/81/48 57/71/48 
f 64/82/49 54/83/49 62/84/49 61/85/49 
f 65/86/50 55/87/50 54/88/50 64/89/50 
f 56/70/51 55/69/51 66/90/51 67/91/51 
f 65/86/52 68/92/52 66/93/52 55/87/52 
f 67/94/53 69/95/53 70/96/53 71/97/53 
f 67/91/54 66/90/54 72/98/54 69/99/54 
f 66/93/55 73/100/55 72/101/55 
f 67/94/56 71/97/56 63/102/56 56/103/56 
f 69/95/57 74/104/57 70/96/57 
f 75/105/58 76/106/58 74/107/58 69/99/58 
f 77/108/59 78/109/59 76/110/59 75/111/59 
f 79/112/59 80/113/59 78/109/59 77/108/59 
s 1
f 81/114/29 78/115/29 80/116/29 82/117/29 
s off
f 72/118/60 73/119/60 83/120/60 84/121/60 
f 77/122/61 75/123/61 85/124/61 86/125/61 
f 75/105/62 72/98/62 84/126/62 85/127/62 
f 84/121/46 83/120/46 87/128/46 88/129/46 
f 86/125/49 85/124/49 89/130/49 90/131/49 
f 85/127/45 84/126/45 88/132/45 89/133/45 
f 88/129/63 87/128/63 91/134/63 92/135/63 
f 90/136/64 89/137/64 93/138/64 94/139/64 
f 89/133/51 88/132/51 92/140/51 93/141/51 
s 4
f 95/142/45 96/143/45 97/144/45 98/145/45 
s 8
f 99/146/38 100/147/38 101/148/38 102/149/38 
s 16
f 103/150/49 104/151/49 101/152/49 100/153/49 
s 64
f 99/154/46 102/155/46 105/156/46 106/157/46 
s off
f 95/142/65 102/149/65 101/148/65 96/143/65 
f 97/144/66 104/158/66 105/159/66 98/145/66 
s 2
f 107/160/67 108/161/68 109/162/67 110/163/67 
f 108/161/68 111/164/69 109/162/67 
s 8
f 112/165/38 113/166/38 114/167/38 115/168/38 
f 113/166/38 116/169/38 117/170/38 114/167/38 
s 2
f 116/171/70 118/172/71 119/173/72 117/174/70 
f 120/175/73 121/176/29 122/177/29 123/178/74 
f 121/176/29 124/179/29 125/180/29 122/177/29 
s 64
f 124/181/46 112/182/46 115/183/46 125/184/46 
s 2
f 126/185/75 127/186/76 119/173/72 118/172/71 
f 126/185/75 120/175/73 123/178/74 127/186/76 
s off
f 115/168/77 114/167/77 108/187/77 107/188/77 
f 114/167/78 117/170/78 128/189/78 108/187/78 
s 1
f 119/190/79 129/191/80 128/192/81 117/193/82 
f 119/190/79 127/194/83 130/195/84 129/191/80 
f 127/194/83 123/178/85 111/164/86 130/195/84 
f 123/178/85 122/177/87 109/162/87 111/164/86 
f 122/177/87 125/180/87 110/163/87 109/162/87 
s off
f 107/196/88 110/197/88 125/184/88 115/183/88 
s 4
f 131/198/89 132/199/90 133/200/91 
s 8
f 134/201/92 135/202/93 136/203/94 131/198/95 
s 32
f 137/204/96 138/205/97 133/200/98 139/206/99 
s off
f 131/207/46 140/208/46 141/209/46 134/210/46 
f 131/207/46 133/211/46 142/212/46 140/208/46 
f 133/211/46 138/213/46 143/214/46 142/212/46 
f 141/215/100 140/216/100 144/217/100 145/218/100 
f 140/216/1 142/219/1 146/220/1 144/217/1 
f 142/219/101 143/221/101 147/222/101 146/220/101 
s 4
f 148/223/1 149/224/1 150/225/45 151/226/44 
s 8
f 152/227/38 153/228/38 154/229/38 155/230/38 
s 64
f 156/231/46 152/232/46 155/233/46 148/223/46 
f 156/231/46 148/223/46 151/226/46 
s off
f 148/223/102 155/230/102 154/229/102 149/224/102 
s 32
f 150/225/103 157/234/53 156/235/53 151/226/103 
s off
f 157/236/49 150/225/49 158/237/49 159/238/49 
f 150/225/49 149/224/49 160/239/49 158/237/49 
f 149/224/49 154/240/49 160/239/49 
f 159/241/104 158/242/104 161/243/104 162/244/104 
f 158/242/1 160/245/1 163/246/1 161/243/1 
f 160/245/105 164/247/105 165/248/105 163/246/105 
s 1
f 166/249/106 167/250/107 168/251/108 169/252/109 
s 3
f 170/253/110 168/254/108 167/255/107 171/256/111 
s 2
f 172/257/46 166/258/46 169/259/46 173/260/46 
s 1
f 172/261/55 171/262/111 167/250/107 166/249/106 
f 170/263/110 173/264/28 169/252/109 168/251/108 
f 174/265/38 175/266/50 176/267/45 177/268/44 
f 177/268/44 176/267/45 178/269/53 179/270/53 
f 180/271/112 181/272/113 182/273/51 183/274/51 
s 2
f 184/275/114 185/276/115 181/277/116 
s 1
f 186/278/64 184/279/64 181/272/113 180/271/112 
f 187/280/117 188/281/45 189/282/45 190/283/118 
s 2
f 191/284/119 192/285/120 190/286/121 193/287/122 
f 193/287/122 190/286/121 189/288/123 194/289/123 
f 195/290/124 188/291/125 187/292/126 196/293/127 
f 187/292/126 197/294/128 198/295/129 196/293/127 
s 1
f 197/296/130 192/297/131 199/298/132 200/299/133 
s 2
f 192/285/120 191/284/119 201/300/134 199/301/134 
f 198/295/129 197/294/128 200/302/135 202/303/136 
s 1
f 190/283/118 192/297/131 197/296/130 187/280/117 
s off
f 76/106/137 78/115/137 81/114/137 74/107/137 
f 137/204/138 139/206/138 203/304/138 204/305/138 
f 139/206/139 132/199/139 205/306/139 203/307/139 
f 136/203/140 135/202/140 206/308/140 207/309/140 
f 204/310/141 203/311/141 208/312/141 209/313/141 
f 203/311/142 205/314/142 208/312/142 
f 207/315/143 206/316/143 210/317/143 211/318/143 
f 209/319/49 208/312/49 211/318/49 210/320/49 
f 132/199/144 136/203/144 207/321/144 205/306/144 
s 4
f 131/198/89 136/203/145 132/199/90 
f 132/199/90 139/206/146 133/200/91 
s 2
f 108/161/68 128/192/147 129/191/148 
f 108/161/68 129/191/148 130/195/149 
f 108/161/68 130/195/149 111/164/69 
s 64
f 95/142/46 98/145/46 105/156/46 102/155/46 
s 16
f 97/144/49 96/143/49 101/152/49 104/151/49 
s off
f 205/314/150 207/315/150 211/318/150 
f 205/314/151 211/318/151 208/312/151 
f 27/322/152 21/323/152 20/324/152 
s 4
f 212/1/153 213/3/153 214/2/153 
s 36
f 215/4/154 7/7/5 6/6/4 216/5/155 
s off
f 215/4/156 217/10/156 218/9/156 8/8/156 
f 215/4/157 8/8/157 7/7/157 
s 3
f 11/11/7 13/13/9 219/12/158 
f 15/15/11 220/14/159 219/12/158 13/13/9 
f 221/17/160 16/16/12 11/11/7 219/12/158 
f 222/19/161 18/18/14 16/16/12 221/17/160 
f 23/23/19 223/22/162 224/21/163 20/20/16 
f 222/19/161 223/22/162 23/23/19 18/18/14 
s 1
f 25/27/21 24/26/20 222/25/161 221/24/160 
f 222/25/161 24/26/20 26/29/22 223/28/162 
f 26/29/22 27/31/23 224/30/163 223/28/162 
s off
f 28/32/24 31/35/24 225/34/24 226/33/24 
f 35/39/164 34/38/164 227/37/164 228/36/164 
f 227/43/165 34/42/165 37/41/165 229/40/165 
s 32
f 230/44/166 213/3/166 40/46/29 39/45/28 
s 8
f 214/2/167 42/49/32 41/48/31 212/47/168 
s 1
f 213/3/169 212/52/170 41/51/35 40/50/34 
s 8
f 214/2/167 231/55/171 43/54/38 42/53/32 
f 232/56/172 233/59/172 234/58/173 235/57/173 
f 236/60/174 237/63/174 238/62/175 239/61/175 
s 1
f 240/66/176 238/65/176 234/64/177 233/67/177 
s off
f 241/71/178 242/68/178 243/79/178 
f 241/74/46 243/73/46 58/72/46 60/75/46 
f 244/78/179 61/77/179 58/76/179 243/79/179 
f 244/84/49 242/83/49 64/82/49 61/85/49 
f 242/88/50 245/87/50 65/86/50 64/89/50 
f 246/70/177 247/91/177 248/90/177 245/69/177 
f 245/87/52 248/93/52 68/92/52 65/86/52 
f 70/96/63 249/95/63 247/94/63 71/97/63 
f 247/91/180 249/99/180 250/98/180 248/90/180 
f 248/93/38 251/100/38 68/92/38 
f 60/81/181 63/80/181 246/70/181 241/71/181 
f 246/103/182 63/102/182 71/97/182 247/94/182 
f 252/107/183 253/106/183 254/105/183 249/99/183 
f 255/108/184 254/111/184 253/110/184 256/109/184 
f 79/112/59 255/108/59 256/109/59 80/113/59 
f 257/325/185 252/104/185 70/96/185 82/326/185 
s 1
f 257/114/29 82/117/29 80/116/29 256/115/29 
s off
f 250/118/186 258/121/186 259/120/186 251/119/186 
f 255/122/61 260/125/61 261/124/61 254/123/61 
f 254/105/187 261/127/187 258/126/187 250/98/187 
f 258/121/46 262/129/46 263/128/46 259/120/46 
f 260/125/49 264/131/49 265/130/49 261/124/49 
f 261/127/177 265/133/177 262/132/177 258/126/177 
f 262/129/63 266/135/63 267/134/63 263/128/63 
f 264/136/38 268/139/38 269/138/38 265/137/38 
f 265/133/176 269/141/176 266/140/176 262/132/176 
s 4
f 270/142/153 271/145/153 272/144/153 273/143/153 
s 8
f 99/146/38 274/149/38 275/148/38 100/147/38 
s 16
f 103/150/49 100/153/49 275/152/49 276/151/49 
s 64
f 99/154/46 106/157/46 277/156/46 274/155/46 
s off
f 270/142/188 273/143/188 275/148/188 274/149/188 
f 272/144/189 271/145/189 277/159/189 276/158/189 
s 2
f 278/160/190 279/163/190 280/162/190 281/161/191 
f 281/161/191 280/162/190 282/164/192 
s 8
f 112/165/38 283/168/38 284/167/38 113/166/38 
f 113/166/38 284/167/38 285/170/38 116/169/38 
s 2
f 116/171/70 285/174/70 286/173/71 118/172/71 
f 120/175/73 287/178/73 288/177/29 121/176/29 
f 121/176/29 288/177/29 289/180/29 124/179/29 
s 64
f 124/181/46 289/184/46 283/183/46 112/182/46 
s 2
f 118/172/71 286/173/71 290/186/75 126/185/75 
f 126/185/75 290/186/75 287/178/73 120/175/73 
s off
f 283/168/193 278/188/193 281/187/193 284/167/193 
f 284/167/194 281/187/194 291/189/194 285/170/194 
s 1
f 285/193/195 291/192/196 292/191/197 286/190/198 
f 286/190/198 292/191/197 293/195/199 290/194/200 
f 290/194/200 293/195/199 282/164/201 287/178/202 
f 287/178/202 282/164/201 280/162/203 288/177/203 
f 288/177/203 280/162/203 279/163/203 289/180/203 
s off
f 278/196/204 283/183/204 289/184/204 279/197/204 
s 4
f 294/198/205 295/200/206 296/199/207 
s 8
f 297/203/208 135/202/93 134/201/92 294/198/209 
s 32
f 295/200/210 138/205/97 137/204/96 298/206/211 
s off
f 134/210/46 141/209/46 299/208/46 294/207/46 
f 294/207/46 299/208/46 300/212/46 295/211/46 
f 295/211/46 300/212/46 143/214/46 138/213/46 
f 141/215/212 145/218/212 301/217/212 299/216/212 
f 299/216/153 301/217/153 302/220/153 300/219/153 
f 300/219/213 302/220/213 147/222/213 143/221/213 
s 4
f 303/223/178 304/226/177 305/225/178 306/224/153 
s 8
f 152/227/38 307/230/38 308/229/38 153/228/38 
s 64
f 304/226/46 303/223/46 307/233/46 152/232/46 
f 156/231/46 304/226/46 152/232/46 
s off
f 303/223/214 306/224/214 308/229/214 307/230/214 
s 32
f 304/226/215 156/235/53 157/234/53 305/225/215 
s off
f 159/238/49 309/237/49 305/225/49 157/236/49 
f 305/225/49 309/237/49 310/239/49 306/224/49 
f 306/224/49 310/239/49 308/240/49 
f 159/241/216 162/244/216 311/243/216 309/242/216 
f 309/242/153 311/243/153 312/246/153 310/245/153 
f 310/245/217 312/246/217 165/248/217 164/247/217 
s 1
f 313/249/218 314/252/219 315/251/220 316/250/221 
s 3
f 316/255/221 315/254/220 170/253/110 171/327/111 
s 2
f 314/259/46 313/258/46 172/257/46 173/260/46 
s 1
f 316/250/221 171/262/111 172/261/55 313/249/218 
f 314/252/219 173/264/28 170/263/110 315/251/220 
f 317/268/178 318/267/178 175/266/50 174/265/38 
f 179/270/53 178/269/53 318/267/178 317/268/178 
f 319/271/222 320/274/153 321/273/153 322/272/223 
s 2
f 184/275/114 322/277/224 185/276/115 
f 323/328/225 180/329/226 183/330/227 
s 1
f 322/272/223 184/279/64 186/278/64 319/271/222 
f 324/280/228 325/283/229 326/282/176 327/281/153 
s 2
f 191/284/119 193/287/122 325/286/121 328/285/120 
f 193/287/122 194/289/123 326/288/123 325/286/121 
f 195/290/124 196/293/127 324/292/230 327/291/124 
f 324/292/230 196/293/127 198/295/129 329/294/231 
s 1
f 329/296/232 330/299/233 331/298/234 328/297/235 
s 2
f 328/285/120 331/301/134 201/300/134 191/284/119 
f 198/295/129 202/303/136 330/302/136 329/294/231 
s 1
f 325/283/229 324/280/228 329/296/232 328/297/235 
s off
f 253/106/236 252/107/236 257/114/236 256/115/236 
f 137/204/237 204/305/237 332/304/237 298/206/237 
f 298/206/238 332/307/238 333/306/238 296/199/238 
f 297/203/239 334/309/239 206/308/239 135/202/239 
f 209/313/240 335/312/240 332/311/240 204/310/240 
f 332/311/241 335/312/241 333/314/241 
f 209/319/49 210/320/49 336/318/49 335/312/49 
f 296/199/242 333/306/242 334/321/242 297/203/242 
s 4
f 294/198/205 296/199/207 297/203/243 
f 296/199/207 295/200/206 298/206/244 
s 2
f 281/161/191 292/191/245 291/192/246 
f 281/161/191 293/195/247 292/191/245 
f 281/161/191 282/164/192 293/195/247 
s 64
f 270/142/46 274/155/46 277/156/46 271/145/46 
s 16
f 272/144/49 276/151/49 275/152/49 273/143/49 
s off
f 333/314/248 336/318/248 334/315/248 
f 27/322/152 20/324/152 224/323/152 
s 1
f 337/331/249 338/332/250 339/333/251 340/334/252 
f 341/335/28 342/336/253 343/337/254 344/338/255 
f 342/336/253 337/331/249 340/334/252 343/337/254 
f 339/339/251 343/340/254 340/341/252 
f 345/342/256 346/343/257 347/344/258 339/345/251 
f 348/346/45 339/347/251 349/348/44 
f 350/349/44 351/350/259 352/351/260 353/352/38 
f 352/353/260 351/354/259 354/355/204 
f 355/356/1 356/357/44 357/358/261 358/359/261 
f 359/360/262 360/361/263 356/357/44 355/356/1 
s off
f 358/362/264 357/363/264 361/364/264 362/365/264 
f 360/366/265 359/367/265 363/368/265 364/369/265 
s 1
f 365/370/266 366/371/267 367/372/268 
f 368/373/269 369/374/270 370/375/271 371/376/272 
f 372/377/273 373/378/274 374/379/275 375/380/276 
f 376/331/277 377/334/278 378/333/279 379/332/280 
f 341/335/28 344/338/255 380/337/281 381/336/282 
f 381/336/282 380/337/281 377/334/278 376/331/277 
f 378/339/279 380/340/281 344/381/255 347/382/258 
f 382/342/283 378/345/279 347/344/258 346/343/257 
f 383/346/178 378/347/279 382/383/283 
f 353/352/38 352/351/260 384/350/284 385/349/176 
f 352/353/260 354/355/204 384/354/284 
f 386/359/285 387/358/285 388/357/176 389/356/178 
f 389/356/178 388/357/176 390/361/286 391/360/287 
s off
f 386/362/288 392/365/288 393/364/288 387/363/288 
f 390/366/289 394/369/289 395/368/289 391/367/289 
s 1
f 396/370/290 397/384/291 398/385/292 
f 399/376/293 400/375/294 401/374/295 402/373/296 
f 403/377/297 404/380/298 405/379/299 406/378/300 
f 407/356/64 408/357/50 409/358/301 410/359/301 
f 411/360/302 412/361/303 408/357/50 407/356/64 
s off
f 410/362/304 409/363/304 413/364/304 414/365/304 
f 412/366/305 411/367/305 415/368/305 416/369/305 
s 1
f 417/386/306 418/387/306 419/388/307 420/389/307 
f 419/388/307 421/390/308 422/391/308 420/389/307 
f 421/390/308 423/392/309 424/393/310 422/391/308 
f 425/394/311 426/395/29 427/396/29 428/397/311 
f 423/392/309 425/394/311 428/397/311 424/393/310 
f 429/398/312 430/399/312 431/400/312 432/401/312 
f 433/389/313 434/388/313 435/387/314 436/386/314 
f 437/390/315 434/388/313 433/389/313 438/391/315 
f 439/392/316 437/390/315 438/391/315 440/393/317 
f 426/395/29 441/394/318 442/397/318 427/396/29 
f 441/394/318 439/392/316 440/393/317 442/397/318 
f 443/401/319 444/400/320 445/399/321 446/402/322 
f 445/399/321 447/398/178 446/402/322 
f 404/380/298 396/370/290 448/403/323 449/404/324 
f 448/403/323 396/370/290 398/385/292 
f 365/370/266 375/380/276 450/404/325 451/403/326 
f 452/385/327 365/370/266 451/403/326 
s 3
f 453/405/328 454/406/44 455/407/63 456/408/329 
s 1
f 457/409/330 458/410/38 454/406/44 453/405/328 
f 459/411/331 460/412/28 461/413/51 462/414/332 
f 462/414/332 461/413/51 463/415/50 464/416/333 
f 465/417/334 466/418/335 459/411/331 462/414/332 
f 467/419/336 465/417/334 462/414/332 464/416/333 
f 456/408/329 468/420/337 469/421/338 453/405/328 
f 469/421/338 470/422/339 457/409/330 453/405/328 
f 465/423/334 471/424/49 466/425/335 
f 467/426/336 471/424/49 465/423/334 
f 470/426/339 469/427/338 472/424/88 
f 469/427/338 468/425/337 472/424/88 
s 3
f 455/407/63 473/406/176 474/405/340 456/408/329 
s 1
f 474/405/340 473/406/176 458/410/38 457/409/330 
f 475/414/341 476/413/177 460/412/28 459/411/331 
f 464/416/333 463/415/50 476/413/177 475/414/341 
f 459/411/331 466/418/335 477/417/342 475/414/341 
f 475/414/341 477/417/342 467/419/336 464/416/333 
f 474/405/340 478/421/343 468/420/337 456/408/329 
f 474/405/340 457/409/330 470/422/339 478/421/343 
f 466/425/335 471/424/49 477/427/342 
f 477/427/342 471/424/49 467/426/336 
f 470/426/339 472/424/88 478/423/343 
f 478/423/343 472/424/88 468/425/337 
s 8
f 49/60/42 52/63/42 47/58/41 46/57/41 
f 50/61/43 479/428/344 53/429/344 51/62/43 
s 1
f 47/64/44 52/430/51 51/65/44 
s 4
f 2/2/1 44/55/1 38/44/1 3/3/1 
s 3
f 14/14/10 480/431/345 15/15/11 
f 15/15/11 480/431/345 220/14/159 
s 1
f 481/432/63 482/433/346 351/350/259 350/349/44 
f 351/434/259 482/435/346 354/355/204 
f 482/433/346 481/432/63 385/349/176 384/350/284 
f 354/355/204 482/435/346 384/434/284 
s off
f 483/436/347 37/437/347 36/438/347 484/439/347 
f 37/437/348 483/436/348 485/439/348 229/438/348 
f 484/439/1 36/438/1 33/37/1 32/36/1 
f 229/438/176 485/439/176 228/36/176 227/37/176 
s 4
f 213/3/153 230/44/153 231/55/153 214/2/153 
s 8
f 237/63/174 236/60/174 235/57/173 234/58/173 
f 240/429/349 486/428/349 239/61/175 238/62/175 
s 1
f 238/65/176 237/430/177 234/64/177 
s off
f 487/440/350 488/441/350 30/34/350 29/33/350 
f 488/441/351 487/440/351 226/33/351 225/34/351 
f 57/71/1 59/79/1 54/68/1 
f 246/70/178 245/69/178 242/68/178 241/71/178 
f 59/79/44 62/78/44 54/68/44 
f 242/68/177 244/78/177 243/79/177 
f 66/93/38 68/92/38 73/100/38 
f 248/93/50 250/101/50 251/100/50 
f 81/325/352 82/326/352 70/96/352 74/104/352 
f 252/104/57 249/95/57 70/96/57 
f 69/99/44 72/98/44 75/105/44 
f 254/105/177 250/98/177 249/99/177 
f 370/375/353 373/378/353 371/376/353 
f 366/371/354 372/377/354 367/372/354 
s 1
f 365/370/266 489/384/355 366/371/267 
s off
f 490/372/356 403/377/356 491/371/356 
f 399/376/357 406/378/357 400/375/357 
f 396/370/358 490/372/358 491/371/358 
s 1
f 452/385/327 369/374/270 368/373/269 489/384/355 
f 402/373/296 401/374/295 398/385/292 397/384/291 
s off
f 372/377/359 375/380/359 367/372/359 
f 490/372/360 404/380/360 403/377/360 
f 370/375/361 374/379/361 373/378/361 
f 406/378/362 405/379/362 400/375/362 
s 1
f 339/347/251 452/442/327 349/348/44 
f 492/348/153 398/442/292 378/347/279 
f 383/346/178 492/348/153 378/347/279 
f 348/346/45 345/383/256 339/347/251 
f 398/442/292 401/443/295 379/444/280 378/347/279 
f 339/347/251 338/444/250 369/443/270 452/442/327 
f 378/339/279 377/341/278 380/340/281 
f 339/339/251 347/382/258 344/381/255 343/340/254 
s off
f 210/317/363 206/316/363 334/315/363 336/318/363 
f 333/314/364 335/312/364 336/318/364 
s 2
f 185/276/115 182/445/365 181/277/116 
f 322/277/224 321/445/366 185/276/115 
f 323/328/225 319/329/367 186/446/368 
f 323/328/225 186/446/368 180/329/226 
f 323/328/225 320/330/227 319/329/367 
s 1
f 493/447/369 494/448/370 495/449/371 496/450/372 
f 496/450/372 495/449/371 497/451/373 498/452/374 
f 499/453/375 500/454/376 494/448/370 493/447/369 
f 501/450/377 502/449/378 503/448/379 504/447/380 
f 501/450/377 505/452/381 506/451/382 502/449/378 
f 507/453/383 504/447/380 503/448/379 508/454/384 
s 8
f 509/455/385 510/456/385 511/457/386 512/458/386 
s 16
f 513/459/49 514/460/49 515/461/49 516/462/49 
f 517/463/387 518/464/387 519/465/388 520/466/389 
s 8
f 521/467/38 522/468/38 523/469/38 524/470/38 
f 525/471/390 526/472/390 510/456/385 509/455/385 
s off
f 524/470/391 523/469/391 526/472/391 525/471/391 
s 4
f 527/473/392 523/474/393 528/475/394 
f 528/475/394 523/474/393 529/476/395 
s 8
f 530/477/396 531/478/396 532/479/396 533/480/396 
s 16
f 520/466/389 519/465/388 531/478/397 530/477/397 
s off
f 522/468/398 521/467/398 533/481/398 532/482/398 
f 516/462/29 515/461/29 518/464/29 517/463/29 
f 528/483/55 529/484/55 534/485/55 535/486/55 
f 529/487/49 536/488/49 534/489/49 
s 32
f 537/490/399 538/491/400 539/492/401 
s off
f 540/493/402 541/494/402 542/495/402 543/496/402 
f 542/495/46 538/491/46 544/497/46 543/496/46 
s 4
f 522/498/403 519/499/404 529/476/395 523/474/393 
s off
f 537/500/49 539/501/49 536/488/49 
s 1
f 515/502/405 519/499/406 518/503/407 
s 3
f 515/502/405 536/504/408 529/476/409 
s 1
f 545/505/410 546/506/411 547/507/412 548/508/413 
f 545/505/410 548/508/413 549/509/414 550/510/415 
f 548/508/413 547/507/412 551/511/416 
f 552/512/417 553/513/418 549/514/414 548/515/413 
f 551/511/416 554/516/419 552/512/417 548/508/413 
f 554/516/419 555/517/420 556/518/421 552/512/417 
f 552/512/417 556/518/421 557/519/422 553/520/418 
f 555/517/420 554/516/419 558/521/423 559/522/424 
f 551/511/416 560/523/425 558/524/423 554/516/419 
f 547/525/412 546/526/411 561/527/426 562/528/427 
f 555/529/420 559/530/424 557/531/422 556/532/421 
f 562/528/427 560/533/425 551/534/416 547/525/412 
f 563/535/428 564/536/429 565/537/430 566/538/38 
f 564/536/429 567/539/431 565/537/430 
f 568/540/432 567/539/431 564/536/429 563/541/428 
f 569/542/44 567/539/431 570/543/433 
f 568/540/432 571/544/434 570/543/433 567/539/431 
f 565/537/430 567/539/431 569/542/44 
f 572/545/435 573/546/102 574/547/436 
f 575/548/51 576/549/437 574/547/436 
f 573/546/102 575/548/51 574/547/436 
f 572/545/435 577/550/438 578/551/38 573/546/102 
f 576/549/437 579/552/439 580/553/440 574/547/436 
f 574/547/436 580/553/440 577/554/438 572/545/435 
f 581/555/28 582/556/28 583/557/51 584/558/1 
f 584/559/1 583/560/51 585/561/55 586/562/55 
f 587/563/441 588/564/442 589/565/443 590/566/444 
f 591/567/445 587/563/441 590/566/444 592/568/446 
f 588/564/442 593/569/447 579/570/439 589/565/443 
f 594/571/448 595/572/449 596/573/450 597/574/451 
f 598/575/452 599/576/453 600/577/454 601/578/455 
f 602/579/29 598/580/452 601/581/455 603/582/456 
s 5
f 597/583/451 601/584/455 600/585/454 
s 7
f 600/577/454 599/576/453 594/586/448 597/587/451 
s 1
f 597/588/451 596/589/450 603/590/456 601/584/455 
f 587/563/441 604/591/457 588/564/442 
f 591/567/445 604/592/457 587/563/441 
f 588/564/442 604/593/457 593/569/447 
s 2
f 514/594/458 537/595/459 536/504/408 515/502/405 
s 1
f 515/502/405 529/476/409 519/499/406 
s 4
f 522/498/403 531/596/460 519/499/404 
s 32
f 537/490/399 544/497/461 538/491/400 
s 4
f 527/473/392 511/597/462 510/598/463 523/474/393 
s 8
f 509/455/385 512/458/386 605/457/386 606/456/385 
s 16
f 513/459/49 516/462/49 607/461/49 608/460/49 
f 517/463/387 520/466/389 609/465/388 610/464/387 
s 8
f 521/467/38 524/470/38 611/469/38 612/468/38 
f 606/456/385 613/472/390 525/471/390 509/455/385 
s off
f 613/472/391 611/469/391 524/470/391 525/471/391 
s 4
f 614/473/464 615/475/465 611/474/466 
f 615/475/465 616/476/467 611/474/466 
s 8
f 530/477/396 533/480/396 617/479/396 618/478/396 
s 16
f 618/478/397 609/465/388 520/466/389 530/477/397 
s off
f 612/468/398 617/482/398 533/481/398 521/467/398 
f 516/462/29 517/463/29 610/464/29 607/461/29 
f 615/483/50 619/486/50 620/485/50 616/484/50 
f 616/487/49 620/489/49 621/488/49 
s 32
f 622/490/468 623/492/469 624/491/470 
s off
f 540/493/471 543/496/471 625/495/471 626/494/471 
f 625/495/46 543/496/46 544/497/46 624/491/46 
s 4
f 612/498/472 611/474/466 616/476/467 609/499/473 
s off
f 622/500/49 621/488/49 623/501/49 
s 1
f 607/502/474 610/503/475 609/499/476 
s 3
f 607/502/474 616/476/477 621/504/478 
s 1
f 627/505/479 628/508/480 629/507/481 630/506/482 
f 627/505/479 550/510/415 549/509/414 628/508/480 
f 628/508/480 631/511/483 629/507/481 
f 632/512/484 628/515/480 549/514/414 553/513/418 
f 631/511/483 628/508/480 632/512/484 633/516/485 
f 633/516/485 632/512/484 634/518/486 635/517/487 
f 632/512/484 553/520/418 557/519/422 634/518/486 
f 635/517/487 559/522/424 558/521/423 633/516/485 
f 631/511/483 633/516/485 558/524/423 560/523/425 
f 629/525/481 562/528/427 561/527/426 630/526/482 
f 635/529/487 634/532/486 557/531/422 559/530/424 
f 562/528/427 629/525/481 631/534/483 560/533/425 
f 563/535/428 566/538/38 636/537/214 637/536/488 
f 637/536/488 636/537/214 638/539/489 
f 637/536/488 638/539/489 568/540/432 563/541/428 
f 639/542/177 640/543/490 638/539/489 
f 568/540/432 638/539/489 640/543/490 571/544/434 
f 636/537/214 639/542/177 638/539/489 
f 641/545/491 642/547/492 643/546/214 
f 644/548/176 642/547/492 645/549/493 
f 643/546/214 642/547/492 644/548/176 
f 641/545/491 643/546/214 578/551/38 577/550/438 
f 645/549/493 642/547/492 580/553/440 579/552/439 
f 577/554/438 580/553/440 642/547/492 641/545/491 
f 581/555/28 646/558/178 647/557/176 582/556/28 
f 646/559/178 586/562/55 585/561/55 647/560/176 
f 648/563/494 649/566/495 650/565/496 651/564/497 
f 591/567/445 592/568/446 649/566/495 648/563/494 
f 651/564/497 650/565/496 579/570/439 593/569/447 
f 596/573/450 595/572/449 652/571/498 653/574/499 
f 654/575/500 655/578/501 656/577/502 657/576/503 
f 602/579/29 603/582/456 655/581/501 654/580/500 
s 5
f 656/585/502 655/584/501 653/583/499 
s 7
f 653/587/499 652/586/498 657/576/503 656/577/502 
s 1
f 653/588/499 655/584/501 603/590/456 596/589/450 
f 648/563/494 651/564/497 604/591/457 
f 591/567/445 648/563/494 604/592/457 
f 651/564/497 593/569/447 604/593/457 
s 2
f 608/594/504 607/502/474 621/504/478 622/595/505 
s 1
f 607/502/474 609/499/476 616/476/477 
s 4
f 612/498/472 618/596/506 617/599/507 
s 32
f 622/490/468 624/491/470 544/497/461 
s 4
f 614/473/464 611/474/466 606/598/508 605/597/509 
f 522/498/403 532/599/510 531/596/460 
f 612/498/472 609/499/473 618/596/506 
f 510/598/463 526/600/51 523/474/393 
f 611/474/466 613/600/176 606/598/508 
s 1
f 658/601/511 659/602/512 660/603/513 661/604/514 
f 659/605/512 662/606/515 663/607/516 660/608/513 
f 660/603/513 663/609/516 664/610/46 661/611/514 
f 665/612/49 662/613/515 659/602/512 658/614/511 
f 658/601/511 661/604/514 666/603/517 667/602/518 
f 667/605/518 666/608/517 668/607/519 669/606/520 
f 666/603/517 661/611/514 664/610/46 668/609/519 
f 665/612/49 658/614/511 667/602/518 669/613/520 
f 670/615/521 671/616/522 672/617/523 673/618/524 
f 671/619/522 674/620/525 675/621/526 672/622/523 
f 675/623/526 676/624/527 677/625/528 
f 678/626/529 675/623/526 679/627/530 680/628/531 
f 674/629/525 676/624/527 675/623/526 
f 670/630/521 673/631/524 681/632/532 
f 679/627/530 675/623/526 677/625/528 681/633/532 
f 676/634/527 682/635/533 677/636/528 
f 683/637/534 681/638/532 677/639/528 682/640/533 
f 672/617/523 678/641/529 680/642/531 673/618/524 
f 679/643/530 673/631/524 680/644/531 
f 684/617/535 671/616/522 670/615/521 685/618/536 
f 686/621/537 674/620/525 671/619/522 684/622/535 
f 686/623/537 687/625/538 676/624/527 
f 688/627/539 686/623/537 689/626/540 690/628/541 
f 674/629/525 686/623/537 676/624/527 
f 670/630/521 691/632/542 685/631/536 
f 688/627/539 691/633/542 687/625/538 686/623/537 
f 676/634/527 687/636/538 692/635/543 
f 687/639/538 691/638/542 693/637/544 692/640/543 
f 690/642/541 689/641/540 684/617/535 685/618/536 
f 688/643/539 690/644/541 685/631/536 
f 684/622/535 689/645/540 686/621/537 
f 675/621/526 678/645/529 672/622/523 
f 673/631/524 679/643/530 681/632/532 
f 691/632/542 688/643/539 685/631/536 
s off
f 164/646/49 153/647/49 308/240/49 
f 310/239/49 164/646/49 308/240/49 
f 154/240/49 153/647/49 164/646/49 
f 154/240/49 164/646/49 160/239/49 
s 1
f 365/370/266 452/385/327 489/384/355 
f 396/370/290 491/371/545 397/384/291 
# 416 polygons - 157 triangles

